<svg xmlns="http://www.w3.org/2000/svg" xmlns:xlink="http://www.w3.org/1999/xlink"><defs><symbol viewBox="0 0 306 306" id="arrow-down"><path d="M94.35 0l-35.7 35.7L175.95 153 58.65 270.3l35.7 35.7 153-153z" /></symbol><symbol viewBox="0 0 24 24" id="cross"><path d="M24 20.188l-8.315-8.209 8.2-8.282L20.188 0l-8.212 8.318L3.666.115 0 3.781l8.321 8.24-8.206 8.313L3.781 24l8.237-8.318 8.285 8.203z" /></symbol><symbol viewBox="0 0 483.3 483.3" id="envelope"><path d="M424.3 57.75H59.1c-32.6 0-59.1 26.5-59.1 59.1v249.6c0 32.6 26.5 59.1 59.1 59.1h365.1c32.6 0 59.1-26.5 59.1-59.1v-249.5c.1-32.6-26.4-59.2-59-59.2zm32.1 308.7c0 17.7-14.4 32.1-32.1 32.1H59.1c-17.7 0-32.1-14.4-32.1-32.1v-249.5c0-17.7 14.4-32.1 32.1-32.1h365.1c17.7 0 32.1 14.4 32.1 32.1v249.5h.1z" /><path d="M304.8 238.55l118.2-106c5.5-5 6-13.5 1-19.1-5-5.5-13.5-6-19.1-1l-163 146.3-31.8-28.4c-.1-.1-.2-.2-.2-.3-.7-.7-1.4-1.3-2.2-1.9L78.3 112.35c-5.6-5-14.1-4.5-19.1 1.1-5 5.6-4.5 14.1 1.1 19.1l119.6 106.9-119.1 111.5c-5.4 5.1-5.7 13.6-.6 19.1 2.7 2.8 6.3 4.3 9.9 4.3 3.3 0 6.6-1.2 9.2-3.6l120.9-113.1 32.8 29.3c2.6 2.3 5.8 3.4 9 3.4s6.5-1.2 9-3.5l33.7-30.2 120.2 114.2c2.6 2.5 6 3.7 9.3 3.7 3.6 0 7.1-1.4 9.8-4.2 5.1-5.4 4.9-14-.5-19.1l-118.7-112.7z" /></symbol><symbol viewBox="0 0 475.084 475.084" id="github"><path d="M436.244 146.752c5.14-15.422 7.713-31.409 7.713-47.967 0-22.08-4.859-42.828-14.564-62.242-20.362 0-38.349 3.715-53.961 11.136-15.604 7.423-33.4 18.938-53.379 34.545-25.122-6.09-51.777-9.135-79.941-9.135-30.837 0-60.245 3.333-88.223 9.994-20.364-15.99-38.351-27.74-53.959-35.26-15.608-7.52-33.689-11.279-54.247-11.279-9.707 19.414-14.56 40.163-14.56 62.242 0 16.751 2.568 32.93 7.708 48.535C12.942 177.587 0 215.272 0 260.383c0 39.595 5.898 71.092 17.701 94.507 6.283 12.367 14.465 23.312 24.554 32.832 10.085 9.514 21.601 17.228 34.545 23.13 12.946 5.896 25.981 10.801 39.116 14.699 13.134 3.9 27.646 6.758 43.54 8.559 15.893 1.816 29.93 3.004 42.111 3.579 12.181.564 25.693.853 40.544.853 17.508 0 33.396-.432 47.678-1.283 14.277-.855 30.594-2.953 48.964-6.276 18.367-3.333 34.547-7.857 48.54-13.565 13.99-5.708 27.412-13.895 40.259-24.551 12.847-10.663 22.884-23.318 30.121-37.976 11.604-23.603 17.412-55.107 17.412-94.507-.007-45.302-12.95-83.178-38.841-113.632zm-34.249 207.703c-6.092 12.471-13.802 22.265-23.127 29.41-9.329 7.139-20.938 12.847-34.831 17.135-13.9 4.281-27.217 7.087-39.971 8.415-12.758 1.334-26.933 1.998-42.545 1.998h-47.966c-15.607 0-29.79-.664-42.541-1.998-12.752-1.328-26.075-4.134-39.971-8.415-13.891-4.288-25.5-9.996-34.829-17.135-9.329-7.146-17.037-16.939-23.128-29.41-6.09-12.471-9.136-27.076-9.136-43.824 0-22.847 6.567-42.264 19.702-58.245 13.134-15.99 30.929-23.982 53.387-23.982 8.188 0 26.746 1.997 55.677 5.995 13.513 2.093 28.456 3.14 44.823 3.14 16.372 0 31.313-1.044 44.824-3.14 29.317-3.999 47.869-5.995 55.678-5.995 22.457 0 40.252 7.996 53.386 23.982 13.135 15.988 19.698 35.398 19.698 58.245 0 16.751-3.046 31.364-9.13 43.824z" /><path d="M166.875 265.52c-5.806-6.475-12.703-9.712-20.699-9.712-7.998 0-14.896 3.241-20.701 9.712-5.802 6.468-9.897 13.703-12.275 21.689-2.383 8.002-3.571 15.804-3.571 23.422 0 7.61 1.191 15.413 3.571 23.414 2.375 7.991 6.468 15.222 12.275 21.689 5.808 6.475 12.703 9.713 20.701 9.713 7.996 0 14.896-3.244 20.699-9.713 5.804-6.468 9.897-13.698 12.275-21.689 2.38-8.001 3.571-15.804 3.571-23.414 0-7.611-1.188-15.42-3.571-23.422-2.379-7.983-6.468-15.215-12.275-21.689zM349.601 265.52c-5.804-6.475-12.703-9.712-20.697-9.712-7.991 0-14.894 3.241-20.701 9.712-5.804 6.468-9.896 13.703-12.271 21.689-2.385 8.002-3.576 15.804-3.576 23.422 0 7.61 1.191 15.413 3.576 23.414 2.375 7.991 6.468 15.222 12.271 21.689 5.808 6.475 12.71 9.713 20.701 9.713 7.994 0 14.894-3.244 20.697-9.713 5.801-6.468 9.896-13.698 12.278-21.689 2.379-8.001 3.569-15.804 3.569-23.414 0-7.611-1.19-15.42-3.569-23.422-2.381-7.983-6.477-15.215-12.278-21.689z" /></symbol><symbol viewBox="0 0 97.395 97.395" id="insta"><path d="M12.501 0h72.393c6.875 0 12.5 5.09 12.5 12.5v72.395c0 7.41-5.625 12.5-12.5 12.5H12.501C5.624 97.395 0 92.305 0 84.895V12.5C0 5.09 5.624 0 12.501 0zm58.447 10.821a4.395 4.395 0 0 0-4.383 4.385v10.495a4.396 4.396 0 0 0 4.383 4.385h11.008a4.398 4.398 0 0 0 4.385-4.385V15.206a4.397 4.397 0 0 0-4.385-4.385H70.948zm15.439 30.367h-8.572a28.486 28.486 0 0 1 1.25 8.355c0 16.2-13.556 29.332-30.275 29.332-16.718 0-30.272-13.132-30.272-29.332 0-2.904.438-5.708 1.25-8.355h-8.945v41.141a3.884 3.884 0 0 0 3.872 3.872h67.822a3.883 3.883 0 0 0 3.872-3.872V41.188h-.002zM48.789 29.533c-10.802 0-19.56 8.485-19.56 18.953s8.758 18.953 19.56 18.953c10.803 0 19.562-8.485 19.562-18.953s-8.758-18.953-19.562-18.953z" /></symbol><symbol viewBox="0 0 512 512" id="key"><path d="M334.974 0c-95.419 0-173.049 77.63-173.049 173.049 0 21.213 3.769 41.827 11.211 61.403L7.672 399.928a12.613 12.613 0 0 0-3.694 8.917v90.544c0 6.965 5.646 12.611 12.611 12.611h74.616a12.61 12.61 0 0 0 8.91-3.686l25.145-25.107a12.61 12.61 0 0 0 3.701-8.925v-30.876h30.837c6.965 0 12.611-5.646 12.611-12.611v-12.36h12.361c6.964 0 12.611-5.646 12.611-12.611v-27.136h27.136c3.344 0 6.551-1.329 8.917-3.694l40.121-40.121c19.579 7.449 40.196 11.223 61.417 11.223 95.419 0 173.049-77.63 173.049-173.049C508.022 77.63 430.393 0 334.974 0zm0 320.874c-20.642 0-40.606-4.169-59.339-12.393-4.844-2.126-10.299-.956-13.871 2.525-.039.037-.077.067-.115.106l-42.354 42.354h-34.523c-6.965 0-12.611 5.646-12.611 12.611v27.136H159.8c-6.964 0-12.611 5.646-12.611 12.611v12.36h-30.838c-6.964 0-12.611 5.646-12.611 12.611v38.257l-17.753 17.725H29.202v-17.821l154.141-154.14c4.433-4.433 4.433-11.619 0-16.051s-11.617-4.434-16.053 0L29.202 436.854V414.07l167.696-167.708c.038-.038.067-.073.102-.11 3.482-3.569 4.656-9.024 2.53-13.872-8.216-18.732-12.38-38.695-12.38-59.33 0-81.512 66.315-147.827 147.827-147.827S482.802 91.537 482.802 173.05c-.002 81.51-66.318 147.824-147.828 147.824z" /><path d="M387.638 73.144c-26.047 0-47.237 21.19-47.237 47.237s21.19 47.237 47.237 47.237 47.237-21.19 47.237-47.237-21.189-47.237-47.237-47.237zm0 69.252c-12.139 0-22.015-9.876-22.015-22.015s9.876-22.015 22.015-22.015 22.015 9.876 22.015 22.015-9.876 22.015-22.015 22.015z" /></symbol><symbol viewBox="0 0 512.092 512.092" id="link"><path d="M312.453 199.601a116.167 116.167 0 0 0-20.053-16.128 119.472 119.472 0 0 0-64.427-18.859 118.952 118.952 0 0 0-84.48 34.987L34.949 308.23a119.466 119.466 0 0 0-34.91 84.318c-.042 65.98 53.41 119.501 119.39 119.543a118.7 118.7 0 0 0 84.395-34.816l89.6-89.6a8.534 8.534 0 0 0-6.059-14.592h-3.413a143.626 143.626 0 0 1-54.613-10.581 8.533 8.533 0 0 0-9.301 1.877l-64.427 64.512c-20.006 20.006-52.442 20.006-72.448 0-20.006-20.006-20.006-52.442 0-72.448l108.971-108.885c19.99-19.965 52.373-19.965 72.363 0 13.472 12.679 34.486 12.679 47.957 0a34.134 34.134 0 0 0 9.899-21.675 34.137 34.137 0 0 0-9.9-26.282z" /><path d="M477.061 34.993c-46.657-46.657-122.303-46.657-168.96 0l-89.515 89.429a8.533 8.533 0 0 0-1.792 9.387 8.532 8.532 0 0 0 8.021 5.205h3.157a143.357 143.357 0 0 1 54.528 10.667 8.533 8.533 0 0 0 9.301-1.877l64.256-64.171c20.006-20.006 52.442-20.006 72.448 0 20.006 20.006 20.006 52.442 0 72.448l-80.043 79.957-.683.768-27.989 27.819c-19.99 19.965-52.373 19.965-72.363 0-13.472-12.679-34.486-12.679-47.957 0a34.139 34.139 0 0 0-9.899 21.845 34.137 34.137 0 0 0 9.899 26.283 118.447 118.447 0 0 0 34.133 23.893c1.792.853 3.584 1.536 5.376 2.304 1.792.768 3.669 1.365 5.461 2.048a67.799 67.799 0 0 0 5.461 1.792l5.035 1.365c3.413.853 6.827 1.536 10.325 2.133 4.214.626 8.458 1.025 12.715 1.195H284.461l5.12-.597c1.877-.085 3.84-.512 6.059-.512h2.901l5.888-.853 2.731-.512 4.949-1.024h.939a119.456 119.456 0 0 0 55.381-31.403l108.629-108.629c46.66-46.657 46.66-122.303.003-168.96z" /></symbol><symbol viewBox="0 0 612 612" id="message"><path d="M401.625 325.125h-191.25c-10.557 0-19.125 8.568-19.125 19.125s8.568 19.125 19.125 19.125h191.25c10.557 0 19.125-8.568 19.125-19.125s-8.568-19.125-19.125-19.125zm38.25-114.75h-267.75c-10.557 0-19.125 8.568-19.125 19.125s8.568 19.125 19.125 19.125h267.75c10.557 0 19.125-8.568 19.125-19.125s-8.568-19.125-19.125-19.125zM306 0C137.012 0 0 119.875 0 267.75c0 84.514 44.848 159.751 114.75 208.826V612l134.047-81.339c18.552 3.061 37.638 4.839 57.203 4.839 169.008 0 306-119.875 306-267.75S475.008 0 306 0zm0 497.25c-22.338 0-43.911-2.601-64.643-7.019l-90.041 54.123 1.205-88.701C83.5 414.133 38.25 345.513 38.25 267.75c0-126.741 119.875-229.5 267.75-229.5s267.75 102.759 267.75 229.5S453.875 497.25 306 497.25z" /></symbol><symbol viewBox="0 0 528.899 528.899" id="pencil"><path d="M328.883 89.125l107.59 107.589-272.34 272.34L56.604 361.465l272.279-272.34zm189.23-25.948l-47.981-47.981c-18.543-18.543-48.653-18.543-67.259 0l-45.961 45.961 107.59 107.59 53.611-53.611c14.382-14.383 14.382-37.577 0-51.959zM.3 512.69c-1.958 8.812 5.998 16.708 14.811 14.565l119.891-29.069L27.473 390.597.3 512.69z" /></symbol><symbol viewBox="0 0 24 24" id="plus"><path d="M24 10H14V0h-4v10H0v4h10v10h4V14h10z" /></symbol><symbol viewBox="0 0 95.333 95.332" id="quote"><path d="M30.512 43.939c-2.348-.676-4.696-1.019-6.98-1.019-3.527 0-6.47.806-8.752 1.793 2.2-8.054 7.485-21.951 18.013-23.516a2.501 2.501 0 0 0 2.04-1.799l2.301-8.23a2.5 2.5 0 0 0-2.068-3.15 17.477 17.477 0 0 0-2.354-.16c-12.637 0-25.152 13.19-30.433 32.076-3.1 11.08-4.009 27.738 3.627 38.223 4.273 5.867 10.507 9 18.529 9.313l.098.002c9.898 0 18.675-6.666 21.345-16.209a22.032 22.032 0 0 0-2.032-16.851c-2.875-5.105-7.61-8.826-13.334-10.473zM92.471 54.413c-2.875-5.106-7.61-8.827-13.334-10.474-2.348-.676-4.696-1.019-6.979-1.019a21.94 21.94 0 0 0-8.753 1.793c2.2-8.054 7.485-21.951 18.014-23.516a2.503 2.503 0 0 0 2.04-1.799l2.301-8.23a2.5 2.5 0 0 0-2.068-3.15 17.455 17.455 0 0 0-2.354-.16c-12.637 0-25.152 13.19-30.434 32.076-3.099 11.08-4.008 27.738 3.629 38.225 4.272 5.866 10.507 9 18.528 9.312l.099.002c9.897 0 18.675-6.666 21.345-16.209a22.045 22.045 0 0 0-2.034-16.851z" /></symbol><symbol viewBox="0 0 1000 1000" id="remove"><path d="M585.8 500l385.9-385.9c24.5-24.5 24.5-61.3 0-85.8s-61.3-24.5-85.8 0L500 414.3 114.1 28.4c-24.5-24.5-61.2-24.5-85.8 0-24.5 24.5-24.5 61.3 0 85.8L411.2 500 28.4 885.9c-24.5 24.5-24.5 61.3 0 85.8 9.2 12.3 27.6 18.4 42.9 18.4 15.3 0 30.6-6.1 42.9-18.4L500 585.8l385.9 385.9c12.3 12.3 27.6 18.4 42.9 18.4s30.6-6.1 42.9-18.4c24.5-24.5 24.5-61.3 0-85.8L585.8 500z" /></symbol><symbol viewBox="0 0 3660 3492" id="screenshot"><filter id="screenshot_a"><feGaussianBlur stdDeviation="12"></feGaussianBlur></filter><path d="M0 0h3660v3488H0z" /><g filter="url(#screenshot_a)" transform="translate(7.1 7.1) scale(14.29688)"><ellipse fill-opacity=".5" rx="1" ry="1" transform="rotate(95.2 79.2 118.6) scale(21.36934 150.55212)" /><ellipse fill-opacity=".5" cx="45" cy="96" rx="201" ry="40" /><ellipse fill-opacity=".5" rx="1" ry="1" transform="matrix(.35503 18.4903 -164.3168 3.15504 129.5 154)" /><ellipse fill-opacity=".5" rx="1" ry="1" transform="matrix(.59692 42.74833 -254.97512 3.56036 143.8 236.2)" /><ellipse fill-opacity=".5" rx="1" ry="1" transform="rotate(-86 137.8 -97) scale(28.79556 72.47326)" /><ellipse fill-opacity=".5" rx="1" ry="1" transform="matrix(56.32097 11.40978 -1.93405 9.54687 33.7 43.4)" /><ellipse fill-opacity=".5" rx="1" ry="1" transform="matrix(.15678 -23.42547 82.59624 .5528 78.6 14)" /><ellipse fill-opacity=".5" rx="1" ry="1" transform="matrix(-1.52124 22.31433 -31.68072 -2.15977 156.3 78)" /><ellipse fill-opacity=".5" cx="220" cy="110" rx="231" ry="20" /><ellipse fill-opacity=".5" cx="253" cy="34" rx="48" ry="22" /><ellipse fill-opacity=".5" rx="1" ry="1" transform="matrix(49.43729 9.93335 -2.0322 10.1141 182.9 49.1)" /><path fill-opacity=".5" d="M197 70h59v3h-59z" /><path fill-opacity=".5" d="M59 140l158-8-75 31z" /><ellipse fill-opacity=".5" cx="100" rx="255" ry="12" /><ellipse fill-opacity=".5" rx="1" ry="1" transform="matrix(-102.23344 8.14422 -.86613 -10.8724 94.2 28)" /><path fill-opacity=".5" d="M96.8 36l-34 19.7 104 1.3-50.3-22.8z" /><ellipse fill-opacity=".5" cx="22" cy="182" rx="205" ry="24" /><path fill-opacity=".5" d="M0 51h35v21H0z" /><ellipse fill-opacity=".5" cx="213" cy="82" rx="55" ry="10" /><ellipse fill-opacity=".5" rx="1" ry="1" transform="rotate(-172.6 34 63) scale(55.87014 6.37597)" /><ellipse fill-opacity=".5" cx="130" cy="67" rx="62" ry="10" /><ellipse fill-opacity=".5" rx="1" ry="1" transform="rotate(-15.9 761 -743.4) scale(75.97496 23.31149)" /><ellipse fill-opacity=".5" cx="126" cy="168" rx="84" ry="13" /><path fill-opacity=".5" d="M152 19h104v20H152z" /><path fill-opacity=".5" d="M162 123l53 15 56-68z" /><path fill-opacity=".5" d="M215 131h41v42h-41z" /><ellipse fill-opacity=".5" rx="1" ry="1" transform="matrix(.76546 14.61587 -76.87845 4.02627 26.5 201)" /><path fill-opacity=".5" d="M80.6 44.9L57.3 59.1 23 47.4l38.4-6.6z" /><path fill-opacity=".5" d="M185.6 50.4l21.9-.8L196 39l-27.7 6.5z" /><ellipse fill-opacity=".5" cx="123" cy="125" rx="46" ry="12" /><ellipse fill-opacity=".5" cx="255" cy="73" rx="16" ry="1" /><path fill-opacity=".5" d="M222.5 132.8l-5.8-25.3 44.8-10.3 5.8 25.3z" /><ellipse fill-opacity=".5" rx="1" ry="1" transform="rotate(-89.3 71.4 65.3) scale(7.14695 63.63082)" /><ellipse fill-opacity=".5" cx="135" cy="142" rx="19" ry="5" /><ellipse fill-opacity=".5" cx="225" cy="58" rx="30" ry="3" /><path fill-opacity=".5" d="M103 39h18v9h-18z" /><path fill-opacity=".5" d="M0 95h92v23H0z" /><path fill-opacity=".5" d="M128 29h49v15h-49z" /><ellipse fill-opacity=".5" cx="153" cy="71" rx="27" ry="16" /><ellipse fill-opacity=".5" rx="1" ry="1" transform="matrix(-35.05931 -11.59476 5.15196 -15.5781 141.2 98)" /><path fill-opacity=".5" d="M15 92h130v2H15z" /><ellipse fill-opacity=".5" rx="1" ry="1" transform="matrix(5.82583 10.9076 -33.21133 17.73843 246 32)" /><path fill-opacity=".5" d="M6 149h19v3H6z" /><ellipse fill-opacity=".5" cx="15" cy="3" rx="46" ry="18" /><path fill-opacity=".5" d="M203 14l-13 14 19-4z" /><ellipse fill-opacity=".5" cx="139" cy="12" rx="77" ry="8" /><ellipse fill-opacity=".5" cx="186" cy="236" rx="255" ry="17" /><path fill-opacity=".5" d="M239 130h17v19h-17z" /><ellipse fill-opacity=".5" cx="16" cy="47" rx="57" ry="2" /><ellipse fill-opacity=".5" cx="191" cy="83" rx="35" ry="12" /><ellipse fill-opacity=".5" cx="207" cy="199" rx="98" ry="15" /><path fill-opacity=".5" d="M125.6 60.4l-15 .2-.2-15 15-.2z" /><path fill-opacity=".5" d="M225 44h31v11h-31z" /><path fill-opacity=".5" d="M0 27h71v16H0z" /><path fill-opacity=".5" d="M251 8h-59l31 15z" /><path fill-opacity=".5" d="M56 57h38v30H56z" /><path fill-opacity=".5" d="M48 91L17 76l-33 17z" /><path fill-opacity=".5" d="M237 137l-50 46 45-14z" /><path fill-opacity=".5" d="M156 135l27-15-29 30z" /><path fill-opacity=".5" d="M52 145h82v13H52z" /><path fill-opacity=".5" d="M96 50.2l55.7 3.4-156.5-10 133 18.3z" /><path fill-opacity=".5" d="M244.4 130.9l-17.1 19-86.6 20.4 60.3-37.5z" /><path fill-opacity=".5" d="M156.3 154.3L107 141.5l24-5.6 70.2 29z" /><path fill-opacity=".5" d="M189 66h43v3h-43z" /><path fill-opacity=".5" d="M142 18h51v12h-51z" /><path fill-opacity=".5" d="M65.3 165.3l-14.2 8.5-66.1 6.9L32.4 157z" /><ellipse fill-opacity=".5" cx="179" cy="42" rx="9" ry="9" /><path fill-opacity=".5" d="M109 158h110v9H109z" /><path fill-opacity=".5" d="M219 23l52-15-66 46z" /><path fill-opacity=".5" d="M108 60h60v20h-60z" /><path fill-opacity=".5" d="M176 110h30v20h-30z" /><path fill-opacity=".5" d="M90 84L74 67l54 16z" /><ellipse fill-opacity=".5" cx="7" cy="61" rx="39" ry="12" /><path fill-opacity=".5" d="M114.5 26l2.5 6.5L81.5 46 79 39.5z" /><path fill-opacity=".5" d="M27 155.7l29.3-7.8 12.3-12.4-23.9 2.6z" /><ellipse fill-opacity=".5" cx="255" cy="70" rx="62" ry="1" /><path fill-opacity=".5" d="M151.1 170.5l-115.2.6 6.3 8 33.6.9z" /><path fill-opacity=".5" d="M202.8 54l20.8-3 1.6 11-20.8 3z" /><path fill-opacity=".5" d="M205 127h38v4h-38z" /><path fill-opacity=".5" d="M30 131h127v5H30z" /><path fill-opacity=".5" d="M44 123h18v1H44z" /><path fill-opacity=".5" d="M129 205.2L-14.7 179l153-2 37-9.2z" /><ellipse fill-opacity=".5" cx="193" cy="62" rx="15" ry="4" /><ellipse fill-opacity=".5" rx="1" ry="1" transform="matrix(9.42844 2.15263 -.73701 3.22807 110.7 147)" /><path fill-opacity=".5" d="M20 24l-32 20 50 8z" /><path fill-opacity=".5" d="M202 71h30v1h-30z" /><path fill-opacity=".5" d="M177 118l-20-38-20 7z" /><path fill-opacity=".5" d="M105 110h51v23h-51z" /><ellipse fill-opacity=".5" cx="211" cy="146" rx="15" ry="3" /><path fill-opacity=".5" d="M153 149l-26-9 19 14z" /><path fill-opacity=".5" d="M242 72h14v2h-14z" /><path fill-opacity=".5" d="M199.3 13.7L190 38.3l-38.4-10.5 5.6 21z" /><path fill-opacity=".5" d="M24 10h34v18H24z" /><ellipse fill-opacity=".5" cx="149" cy="48" rx="13" ry="9" /><path fill-opacity=".5" d="M227 69h29v2h-29z" /><path fill-opacity=".5" d="M63 168l33-4-23-11z" /><path fill-opacity=".5" d="M146.2-6.3L272.1.3l-.3 6L145.9-.3z" /><path fill-opacity=".5" d="M66 56h28v15H66z" /><path fill-opacity=".5" d="M198 49l9-6-19-8z" /><path fill-opacity=".5" d="M103 36h32v4h-32z" /><path fill-opacity=".5" d="M268.2 125.4L229.1 139l-5.4-8.3 47.3 17.6z" /><path fill-opacity=".5" d="M24.1 40.4l68-8 25-19.9L57 19z" /><ellipse fill-opacity=".5" cx="255" cy="78" rx="56" ry="4" /><ellipse fill-opacity=".5" rx="1" ry="1" transform="rotate(179.5 24.5 69.1) scale(26.46043 1)" /><path fill-opacity=".5" d="M193.1 112l2.1-19-8.4 11.4-3.8 12.1z" /><path fill-opacity=".5" d="M188.8 141.5l3.7 1.7-3.3 7.3-3.7-1.7z" /><path fill-opacity=".5" d="M0 55h43v24H0z" /><path fill-opacity=".5" d="M252 151l-61 3 79 18z" /><ellipse fill-opacity=".5" cy="156" rx="7" ry="4" /><ellipse fill-opacity=".5" rx="1" ry="1" transform="rotate(152.2 47.3 98) scale(25.03298 5.92558)" /><path fill-opacity=".5" d="M94.3 130.7l35.5 2.6-52 7.3-3.6-3z" /><path fill-opacity=".5" d="M109.1 25.8l28.8 33-24.4 1.5 9-18.8z" /><ellipse fill-opacity=".5" cx="4" cy="100" rx="50" ry="3" /><path fill-opacity=".5" d="M232 116l-36-12 19 36z" /><ellipse fill-opacity=".5" cx="131" cy="200" rx="71" ry="8" /><path fill-opacity=".5" d="M9 144l13 18-23-18z" /><path fill-opacity=".5" d="M168.9 64.6l90.5 22-23.1-.3 28.5 11.2z" /><ellipse fill-opacity=".5" rx="1" ry="1" transform="matrix(5.48381 -2.33395 .89404 2.10062 197.6 21.8)" /><path fill-opacity=".5" d="M53.5 46.7l71-2.4v1l-71 2.4z" /><path fill-opacity=".5" d="M228 102l-49-14h92z" /><path fill-opacity=".5" d="M86 140l3 6 9-7z" /><path fill-opacity=".5" d="M38.8 192.1l.4 19-44 .8-.4-19z" /><path fill-opacity=".5" d="M234.5 146.4l10.3-6.1 23.2 8-23.2-2.6z" /><path fill-opacity=".5" d="M162.5 78.2l-.7 5-66.3-9.4.7-5z" /><path fill-opacity=".5" d="M212 169h16v9h-16z" /><path fill-opacity=".5" d="M25 109h73v14H25z" /><path fill-opacity=".5" d="M76 84h25v7H76z" /><path fill-opacity=".5" d="M36 170l14-5-22-4z" /><path fill-opacity=".5" d="M227.8 66.7l53.4-13.3 1 3.9-53.4 13.3z" /><path fill-opacity=".5" d="M186 150l-2-9-14-3z" /><ellipse fill-opacity=".5" cx="198" cy="134" rx="34" ry="2" /><path fill-opacity=".5" d="M214 26l-22-3 18 20z" /><path fill-opacity=".5" d="M0 80h42v5H0z" /><ellipse fill-opacity=".5" cx="197" cy="173" rx="12" ry="12" /><path fill-opacity=".5" d="M165.6 58.3L190 47.9l25.4 17.8-4.6-1.3z" /><path fill-opacity=".5" d="M10.7 142.1l6.8-16.1-33.5-20.8 4.6 35.6z" /><path fill-opacity=".5" d="M44 54h36v2H44z" /><path fill-opacity=".5" d="M124.5 164.1l-2.4 14.2-37.2 5.6 58.6 2.3z" /><path fill-opacity=".5" d="M81 152h48v5H81z" /><path fill-opacity=".5" d="M181 34l-8-4-2 3z" /><ellipse fill-opacity=".5" cx="50" cy="44" rx="27" ry="3" /><path fill-opacity=".5" d="M85 158h9v5h-9z" /><path fill-opacity=".5" d="M209.1 63l-15.5-3 63.8-5.1-19.5 7.5z" /><path fill-opacity=".5" d="M-16 26.4L7.7 43-16 46l41.5-22.6z" /><ellipse fill-opacity=".5" rx="1" ry="1" transform="rotate(-14.6 808.7 -627.1) scale(3.65692 16.10185)" /><path fill-opacity=".5" d="M213.1 19.5l.3-4.4-37 1 84.2 11.6z" /><path fill-opacity=".5" d="M124.2 42.5l16-15 7.6 8-16 15z" /><path fill-opacity=".5" d="M139.5 166.2l-5.7-5 31.4-12.2-1.1-6.4z" /><ellipse fill-opacity=".5" cx="218" cy="56" rx="4" ry="4" /><path fill-opacity=".5" d="M184 91l-34 42 18-4z" /><path fill-opacity=".5" d="M21 123h26v2H21z" /><path fill-opacity=".5" d="M63 91.4L55.2 85 88 70.5l11.1 1z" /><path fill-opacity=".5" d="M198 132h32v8h-32z" /><path fill-opacity=".5" d="M119 108h2v14h-2z" /><path fill-opacity=".5" d="M60 141h10v17H60z" /><ellipse fill-opacity=".5" cx="118" cy="102" rx="88" ry="4" /><path fill-opacity=".5" d="M151.9 22.1l28-6.8-79.3-18.9L139.4-16z" /><ellipse fill-opacity=".5" rx="1" ry="1" transform="rotate(-84.2 218 -57.4) scale(1.829 25.53553)" /><path fill-opacity=".5" d="M242.9 152.3l-12-10.1-2.2 4 32.8 22.8z" /><path fill-opacity=".5" d="M31 143v-5l-18 2z" /><path fill-opacity=".5" d="M0 44h36v5H0z" /><path fill-opacity=".5" d="M235 112h13v17h-13z" /><path fill-opacity=".5" d="M185 67l-24-10 2 46z" /><path fill-opacity=".5" d="M183 111l-6 12v-17z" /><ellipse fill-opacity=".5" cx="122" cy="83" rx="13" ry="6" /><path fill-opacity=".5" d="M181 120l-2 9-22 4z" /><ellipse fill-opacity=".5" cx="55" cy="52" rx="9" ry="6" /><ellipse fill-opacity=".5" cx="144" cy="97" rx="94" ry="2" /><path fill-opacity=".5" d="M-16 26.1L46 6.2l47.2 3.5L-8.3 29.4z" /><path fill-opacity=".5" d="M93 167l-39-10 20-2z" /><path stroke-opacity=".5" d="M190 71q81-2.3 81 15.8" stroke-width=".5" /><ellipse fill-opacity=".5" cx="255" cy="102" rx="36" ry="5" /><path fill-opacity=".5" d="M187 27l-10 3 17 9z" /><path fill-opacity=".5" d="M129.9 137.2l8.7-.6L147 125l-12.7 15.9z" /><path fill-opacity=".5" d="M180 51l-30 2 39-14z" /><path fill-opacity=".5" d="M237.6 168l-5.8-16.9-3 29.8 42.2-6.6z" /><path fill-opacity=".5" d="M224 50h9v7h-9z" /><path fill-opacity=".5" d="M189 150.4v-1l34-1.8v1z" /><path fill-opacity=".5" d="M123.1 22.4L136 35l-27.4-1.7L78.2 25z" /><ellipse fill-opacity=".5" rx="1" ry="1" transform="matrix(-3.26585 2.94344 -2.45117 -2.71966 157.6 142.2)" /><path fill-opacity=".5" d="M-6.7 166l37-4.6-.1-17.4-9.4 6.6z" /><path fill-opacity=".5" d="M1 14l42-30-57 6z" /><path fill-opacity=".5" d="M208 74h36v17h-36z" /><path fill-opacity=".5" d="M104 140h36v2h-36z" /><path fill-opacity=".5" d="M116 49.7h-8.3l-15-1.8 39-9.6z" /><path fill-opacity=".5" d="M138 142h11l-4 5z" /><path fill-opacity=".5" d="M165 149h-5l10 12z" /><path fill-opacity=".5" d="M271 1v37l-63 14z" /><path fill-opacity=".5" d="M197 40.7l9.5-12.6-68 24.7 38.2-17.5z" /><path fill-opacity=".5" d="M0 31h66v10H0z" /><path fill-opacity=".5" d="M39.2 165.7l62 22.9-38.5-4.3-5.8-3.3z" /><ellipse fill-opacity=".5" cx="221" cy="73" rx="15" ry="1" /><ellipse fill-opacity=".5" cx="130" cy="208" rx="123" ry="6" /><path fill-opacity=".5" d="M99 142l-7 8 33-1z" /><ellipse fill-opacity=".5" cx="149" cy="147" rx="25" ry="1" /><path fill-opacity=".5" d="M35 142h21v2H35z" /><path fill-opacity=".5" d="M0 124h74v2H0z" /><path fill-opacity=".5" d="M131 59h41v23h-41z" /><path fill-opacity=".5" d="M103 33h54v4h-54z" /><path fill-opacity=".5" d="M127 136l12 9h-22z" /><path fill-opacity=".5" d="M0 49h10v11H0z" /><path fill-opacity=".5" d="M36.2 53.7L5.3 34l50.4 19.8 9.1-4.2z" /><path fill-opacity=".5" d="M250 124h6v6h-6z" /><path fill-opacity=".5" d="M217 3.5l-156.2-16L178.6 13l17.6 4z" /><path fill-opacity=".5" d="M136 136h76v2h-76z" /><path fill-opacity=".5" d="M73.4 152.7L71 175.3l-26.5-24.7 3.5 17z" /><path fill-opacity=".5" d="M142 176.8l1.9-8 22.6-12.6 28-2.4z" /><path fill-opacity=".5" d="M-2.1 146.3l.4-4 31.8 3.4-.4 4z" /><path fill-opacity=".5" d="M236.8 138.5l.3 1-30 8-.2-1z" /><path fill-opacity=".5" d="M52 58h11v26H52z" /><ellipse fill-opacity=".5" cx="76" cy="220" rx="184" ry="7" /><path fill-opacity=".5" d="M128 168.6l17-13-4.3-1.3h-10.3z" /><path fill-opacity=".5" d="M45 79h7v10h-7z" /><ellipse fill-opacity=".5" cx="27" cy="140" rx="22" ry="2" /><path fill-opacity=".5" d="M209.5 71.2l17 .6v1l-17-.6z" /><path fill-opacity=".5" d="M166.4 162.2l19.2-2.5 9-4.7-9.7 13.6z" /><path fill-opacity=".5" d="M142 92h11v28h-11z" /><path fill-opacity=".5" d="M113.5 145.2l39.8-3.3-38.7 6.8-21 15.2z" /><ellipse fill-opacity=".5" cx="85" cy="39" rx="16" ry="4" /><path fill-opacity=".5" d="M261.8 90.5L259.5 72l-32.5.6 27.1-2.6z" /><ellipse fill-opacity=".5" rx="1" ry="1" transform="matrix(-2.10465 3.79688 -23.5488 -13.05331 46.5 64)" /><path fill-opacity=".5" d="M203.2 158.5l-20 11.8 29-7.1-5.7-18.5z" /><path fill-opacity=".5" d="M85.8 142.6l79.3-6.8-12 3-51-.5z" /><path fill-opacity=".5" d="M133 159h74v2h-74z" /><ellipse fill-opacity=".5" cx="110" cy="42" rx="5" ry="5" /><path fill-opacity=".5" d="M200.7 101.3l8.3 7.3-15.7 18-8.3-7.2z" /><path fill-opacity=".5" d="M43 20.3l43.7-4.6.4 4-43.8 4.6z" /><path fill-opacity=".5" d="M147.7 181.2l34-17.8-10.2 17.2-30.3 6.4z" /><path fill-opacity=".5" d="M182.7 133.4l12.8 2.2-.2 1-12.8-2.2z" /><path fill-opacity=".5" d="M183.7 130.1l9.4-10.2-36.6 3.4 5.4-30.5z" /><ellipse fill-opacity=".5" cx="100" cy="58" rx="8" ry="2" /><path fill-opacity=".5" d="M53.2 55.8l-.7 1.9-21.7-7.5.7-1.9z" /><path fill-opacity=".5" d="M257 164l-24-10 16 14z" /><path fill-opacity=".5" d="M57.7 151.8l-4-12.7 14.3.5-31 11z" /><path fill-opacity=".5" d="M204 49l-12-7 14 2z" /><path fill-opacity=".5" d="M222.8 28.5l20.5-14.1-30.7 9.6L180 8z" /><path fill-opacity=".5" d="M215.2 155.3l1.5-1.4 6.1.7 2.5 5.1z" /><path fill-opacity=".5" d="M94.3 165.1l9.9 4.9-.5.9-9.9-4.9z" /><path fill-opacity=".5" d="M215 98h41v2h-41z" /><path fill-opacity=".5" d="M187 47l10.4 6.5 8 9.7 7-12z" /><path fill-opacity=".5" d="M226 143h14v2h-14z" /><path fill-opacity=".5" d="M167.2 208.3l-69.2-26 70.2 14.2 11.8 3.8z" /><path fill-opacity=".5" d="M192.7 10l39.7 6.2 23.7-5.4-33.8-6.2z" /><path fill-opacity=".5" d="M13 93h107v1H13z" /><path fill-opacity=".5" d="M121.5 160.6l-19.3 18.3 17.3-25.6 18.2 41.8z" /><path fill-opacity=".5" d="M117 128l-6-13v15z" /><path fill-opacity=".5" d="M219 102h13v9h-13z" /><path fill-opacity=".5" d="M192.7 57l-11 1-.4-5 11-1z" /><ellipse fill-opacity=".5" cx="199" cy="22" rx="3" ry="3" /><path fill-opacity=".5" d="M183.9 152.2l-19.1-9.7-1.4-7L190 152z" /><ellipse fill-opacity=".5" rx="1" ry="1" transform="rotate(-91.4 143.3 30.7) scale(2.09005 5.61181)" /><path fill-opacity=".5" d="M229 143l-9.8 9.1 22-.1-31.6-9.5z" /><path fill-opacity=".5" d="M135 58l-2-16-41 13z" /><path fill-opacity=".5" d="M141 57h23v16h-23z" /><path fill-opacity=".5" d="M92 135h30v3H92z" /><path fill-opacity=".5" d="M135 77h49v4h-49z" /><path fill-opacity=".5" d="M118 128.3l27.4 5L130 93.6l12.5 13.7z" /><ellipse fill-opacity=".5" rx="1" ry="1" transform="matrix(32.03411 -7.89181 1.09748 4.45484 127 65.6)" /><ellipse fill-opacity=".5" cx="255" cy="182" rx="36" ry="4" /><path fill-opacity=".5" d="M153 175l-2 6-19-2z" /><path fill-opacity=".5" d="M29.1 140.8l26 13-43.3-22.4-23.6 14.1z" /><path fill-opacity=".5" d="M107 84h2v38h-2z" /><path fill-opacity=".5" d="M92.3 106.8l-55.6 10.5 68.8 11.6-12.9-39.4z" /><path fill-opacity=".5" d="M188.6 47.6l-11.8 9.7-12.6.8 3.3-4.1z" /><ellipse fill-opacity=".5" cx="236" cy="73" rx="4" ry="1" /><path fill-opacity=".5" d="M242 57l-26-1 15 5z" /><ellipse fill-opacity=".5" cy="125" rx="13" ry="1" /><path fill-opacity=".5" d="M136.5 50.3l13.6-.8-15-3.5-4 8.6z" /><ellipse fill-opacity=".5" cx="196" cy="66" rx="7" ry="2" /><path fill-opacity=".5" d="M131 104h2v13h-2z" /><ellipse fill-opacity=".5" rx="1" ry="1" transform="matrix(-21.75908 -5.12072 2.66555 -11.3265 221.5 195.6)" /><ellipse fill-opacity=".5" rx="1" ry="1" transform="matrix(10.97636 -2.2387 .32335 1.58537 249.2 154)" /><ellipse fill-opacity=".5" rx="1" ry="1" transform="matrix(-15.40207 .75329 -.15946 -3.2604 191.6 130.1)" /><path fill-opacity=".5" d="M133 113h2v10h-2z" /><path fill-opacity=".5" d="M215.1 73.8l-20.4-4.7.2-1 20.4 4.8z" /><path fill-opacity=".5" d="M118.7 168.1l25.8 8-1.2 3.8-25.8-8z" /><path fill-opacity=".5" d="M163 91l19-3-21 21z" /><path fill-opacity=".5" d="M202 166h23v5h-23z" /><path fill-opacity=".5" d="M11 45h11v5H11z" /><path fill-opacity=".5" d="M225 132h24v2h-24z" /><ellipse fill-opacity=".5" cx="206" cy="27" rx="7" ry="7" /><ellipse fill-opacity=".5" cx="49" cy="130" rx="49" ry="6" /><path fill-opacity=".5" d="M216 37.7l-4-3-7.4 18.6 13.2-.7z" /><path fill-opacity=".5" d="M32 147h11v4H32z" /><ellipse fill-opacity=".5" cx="152" cy="155" rx="2" ry="2" /><path fill-opacity=".5" d="M270 140l-32 3 14 7z" /><path fill-opacity=".5" d="M158.8 127.3l.4-5 6 .4-.4 5z" /><path fill-opacity=".5" d="M143 26l27.8-5.7-19.4-10.1-18 12.7z" /><path fill-opacity=".5" d="M162 142h12v3h-12z" /><path fill-opacity=".5" d="M16 145l-3-2h10z" /><path fill-opacity=".5" d="M212.9 65.6l-.2-1 52.4-8.2.2 1z" /><path fill-opacity=".5" d="M187 142l14 7h-8z" /><path fill-opacity=".5" d="M56 157h5l-6 4z" /><ellipse fill-opacity=".5" cx="151" cy="165" rx="3" ry="3" /><path fill-opacity=".5" d="M20 186L9 212.2l11-7.1 20.6-32.7z" /><ellipse fill-opacity=".5" cx="34" cy="49" rx="17" ry="2" /><path fill-opacity=".5" d="M175 70h17v4h-17z" /><ellipse fill-opacity=".5" cx="189" cy="77" rx="9" ry="2" /><path fill-opacity=".5" d="M271 190l-55-2 42-10z" /><path fill-opacity=".5" d="M203 128h25v4h-25z" /><path fill-opacity=".5" d="M173 40.7l-6.3-11.5-10-2-1.3 15.4z" /><path fill-opacity=".5" d="M245 62h11v3h-11z" /><path fill-opacity=".5" d="M49 153h15v3H49z" /><path fill-opacity=".5" d="M79 162.3l23.2-7-36.9 2.4 36.4 21.8z" /><path fill-opacity=".5" d="M68 94l11-1-4 7z" /><path stroke-opacity=".5" d="M250 150.8q-206.1-17.6-222.2-12" stroke-width=".5" /><path fill-opacity=".5" d="M211 26h45v13h-45z" /><path fill-opacity=".5" d="M96.2 150.6l-5 5.4-6.1-1.4 14.1.3z" /><path fill-opacity=".5" d="M93 86h1v34h-1z" /><ellipse fill-opacity=".5" cx="32" cy="152" rx="49" ry="1" /><path fill-opacity=".5" d="M95 30h7v8h-7z" /><path fill-opacity=".5" d="M250 68l-4-3-11 5z" /><path fill-opacity=".5" d="M180 144l-12-5h17z" /><path fill-opacity=".5" d="M213 73h11v1h-11z" /><path fill-opacity=".5" d="M253.4 58.8l-11.6 10.7-60.8-5.3 38.2 1z" /><ellipse fill-opacity=".5" cx="125" cy="177" rx="3" ry="9" /><path fill-opacity=".5" d="M52 125h30v2H52z" /><path fill-opacity=".5" d="M124.4 21l8.6 15-32.3-2.4 43.4-3.7z" /><path fill-opacity=".5" d="M111.7 193.2l-41.4-13.4 25-1.8-38.6 27.5z" /><path fill-opacity=".5" d="M163 94l-20-1 7-5z" /><path fill-opacity=".5" d="M68 91h75v1H68z" /><path fill-opacity=".5" d="M41.6 183.4l-1.5 7.9-13.7-2.7 1.5-7.9z" /><path fill-opacity=".5" d="M39 172h16v3H39z" /><path fill-opacity=".5" d="M120 184l-22-13-5 13z" /><ellipse fill-opacity=".5" cx="14" cy="121" rx="12" ry="4" /><ellipse fill-opacity=".5" rx="1" ry="1" transform="rotate(21.8 -81.8 74) scale(2.79537 8.97666)" /><path fill-opacity=".5" d="M208 143h9v4h-9z" /><path fill-opacity=".5" d="M156.1 95.8l7.7-14.3-25.2 28.9 14.7-7.7z" /><path fill-opacity=".5" d="M9.3 75.2L22 81l29.6-15.5-63.6 6.6z" /><path fill-opacity=".5" d="M174.8 136.1l-6.3 7.4 21.7-7.8 62.8-.6z" /><path fill-opacity=".5" d="M7.5 149.3l16.5.8-6.9 1-2.4 2.2z" /><path fill-opacity=".5" d="M60 160l2 11 6-11z" /><path fill-opacity=".5" d="M204 95h14v4h-14z" /><ellipse fill-opacity=".5" rx="1" ry="1" transform="rotate(133.9 23.8 109.8) scale(10.31073 2.35459)" /><path fill-opacity=".5" d="M163 27l26 10.6 6.5-10.4-6.9 4z" /><path fill-opacity=".5" d="M119.7 152.2l6.5 9.6 2-17.7 20 9z" /><path fill-opacity=".5" d="M99.8 154.3l-11-8.4-8.4 2.7 13.2 1.6z" /><ellipse fill-opacity=".5" cx="159" cy="155" rx="2" ry="1" /><ellipse fill-opacity=".5" cx="72" cy="173" rx="5" ry="5" /><path fill-opacity=".5" d="M97 177l-11-13-2 5z" /><path fill-opacity=".5" d="M127.2 89.8l-4.4 1.3 14 45.7-19.1-34.4z" /><path fill-opacity=".5" d="M210 54h9v2h-9z" /><path fill-opacity=".5" d="M41.5 120l1.6-14.2-6.6-5.9-1.7 23.7z" /><path fill-opacity=".5" d="M116 99h2v19h-2z" /><path fill-opacity=".5" d="M146 31l16 10-36-6z" /><path fill-opacity=".5" d="M17 156l-10-6 12 13z" /><path stroke-opacity=".5" d="M207.6 68.6q-24.3 2-41.6 1.4" stroke-width=".5" /><ellipse fill-opacity=".5" cx="38" cy="154" rx="2" ry="2" /><ellipse fill-opacity=".5" cx="229" cy="92" rx="66" ry="3" /><path fill-opacity=".5" d="M10.8 140.8L-5.4 165l18-6.5-19.4 1.5z" /><path fill-opacity=".5" d="M175.5 134.7l.6.8-13.6 11.8-.6-.8z" /><path fill-opacity=".5" d="M232 135h24v2h-24z" /><path fill-opacity=".5" d="M163 56l17 10-44 2z" /><ellipse fill-opacity=".5" cx="194" cy="137" rx="3" ry="5" /><path fill-opacity=".5" d="M106.7 75.4l11.7-2.7.9 3.9-11.7 2.7z" /><path fill-opacity=".5" d="M98.2 100l3.7-1.3 4 11.3-3.8 1.3z" /><ellipse fill-opacity=".5" rx="1" ry="1" transform="matrix(6.42792 -5.29406 6.38661 7.75447 199.3 81)" /><path fill-opacity=".5" d="M157 138h4v6h-4z" /><path fill-opacity=".5" d="M-2 189h20l13-12z" /><path fill-opacity=".5" d="M202 113l-8-9 38-7z" /><ellipse fill-opacity=".5" rx="1" ry="1" transform="matrix(-2.94876 -3.2511 6.1697 -5.59593 117 44.5)" /><ellipse fill-opacity=".5" rx="1" ry="1" transform="matrix(6.76557 -3.7165 .90659 1.65036 192.4 102.6)" /><path fill-opacity=".5" d="M246 139h2v3h-2z" /><path fill-opacity=".5" d="M58 83h13v7H58z" /><ellipse fill-opacity=".5" cx="16" cy="150" rx="1" ry="1" /><path fill-opacity=".5" d="M74 71h3v6h-3z" /><path fill-opacity=".5" d="M247 160h5v4h-5z" /><path fill-opacity=".5" d="M83.7 181.3l1.6-6.7-4-8.7-10.2-1.3z" /><path fill-opacity=".5" d="M29.3 162l-24.7-5.4 8.2 14.6-1.9 10.3z" /><path fill-opacity=".5" d="M172.2 164.2l-13.2-2.5 18.1 13.7-13 3.2z" /><path fill-opacity=".5" d="M127 9l25-22L80 7z" /><path fill-opacity=".5" d="M197 175l-11-14h11z" /><path fill-opacity=".5" d="M186 128l-16 8-1-5z" /><ellipse fill-opacity=".5" cx="132" cy="86" rx="29" ry="5" /><path fill-opacity=".5" d="M182.3 152.9l51.5 7.2-.1 1-51.5-7.2z" /><path fill-opacity=".5" d="M44.2 132.3l-12.8 2.3-1.6-8.9 12.8-2.3z" /><ellipse fill-opacity=".5" cx="128" cy="101" rx="3" ry="3" /><path fill-opacity=".5" d="M42.4 158.5l21.4-20.8-26.7-3 17.4 3.5z" /><path fill-opacity=".5" d="M93 153l-15-7-14 2z" /><ellipse fill-opacity=".5" rx="1" ry="1" transform="matrix(.13456 -2.33372 11.84218 .68282 61.8 46.3)" /><path fill-opacity=".5" d="M125.8 149l-33 16.5 14.1-19.6 1.3 20.2z" /><ellipse fill-opacity=".5" rx="1" ry="1" transform="matrix(-58.6679 .36692 -.01948 -3.11455 246.3 81)" /><path fill-opacity=".5" d="M103 157l1.7-5.8L117 155l-1.8 5.8z" /><path fill-opacity=".5" d="M45.2 162.7l16.2 11.8-.6.8-16.2-11.8z" /><path fill-opacity=".5" d="M149.9 205.4l5.5-6.6-69.2 4.1 11.8 8.6z" /><path fill-opacity=".5" d="M182 189l-21 7 26-19z" /><path fill-opacity=".5" d="M41 97h151v1H41z" /><path fill-opacity=".5" d="M103.3 64L84 56l5.1-.4 53.3 11z" /><ellipse fill-opacity=".5" cx="7" cy="141" rx="25" ry="1" /><path fill-opacity=".5" d="M151 135h3v10h-3z" /><path fill-opacity=".5" d="M66 60.1l4.7 3.9-16.8 19.9-4.6-3.9z" /><ellipse fill-opacity=".5" cx="184" cy="23" rx="6" ry="7" /><path fill-opacity=".5" d="M15 137.7l24 1.6v1l-24-1.6z" /><ellipse fill-opacity=".5" cx="210" cy="70" rx="1" ry="1" /><ellipse fill-opacity=".5" rx="1" ry="1" transform="matrix(10.40207 8.75936 -1.46582 1.74072 73 77.9)" /><path fill-opacity=".5" d="M25.9 88.1l10.4.1-3.5-7.7-11.3 3.2z" /><ellipse fill-opacity=".5" cx="136" cy="11" rx="47" ry="3" /><path fill-opacity=".5" d="M179.5 62.6l-6-3.5 1-1.7 6 3.5z" /><ellipse fill-opacity=".5" cx="24" cy="123" rx="6" ry="2" /><path fill-opacity=".5" d="M174.7 99.1l5.4.7-16.8 9.8-2.3 9.2z" /><ellipse fill-opacity=".5" cx="73" cy="143" rx="13" ry="1" /><path fill-opacity=".5" d="M247 71h9v3h-9z" /><ellipse fill-opacity=".5" rx="1" ry="1" transform="matrix(11.37313 0 0 3.44677 211.3 61.5)" /><ellipse fill-opacity=".5" cx="201" cy="15" rx="22" ry="2" /><path stroke-opacity=".5" d="M135.9 134.7Q112 141 77.5 125" stroke-width=".5" /><path fill-opacity=".5" d="M12.8 150.8l-.8.5-2.8-4 .8-.6z" /><ellipse fill-opacity=".5" cx="182" cy="164" rx="3" ry="3" /><path fill-opacity=".5" d="M231.7 134.2v-1l44.6-5.4v1z" /><path fill-opacity=".5" d="M227 21.5l1.2 7.2 25-16.6 3.4 17.2z" /><ellipse fill-opacity=".5" cx="206" cy="152" rx="2" ry="8" /><path fill-opacity=".5" d="M148.4 193.5L127 178.3l28.3 3.2 2.8-23.9z" /><path fill-opacity=".5" d="M250 73h6v2h-6z" /><ellipse fill-opacity=".5" rx="1" ry="1" transform="matrix(13.61431 2.32614 -.3621 2.11932 86.2 51)" /><path fill-opacity=".5" d="M253.5 64.8l-21.3 1-5.7-1.6 37.1 8.7z" /><path fill-opacity=".5" d="M125.3 144.9l18.8.7-15.4-7.3-14.3 4.3z" /><path fill-opacity=".5" d="M200 121h8v11h-8z" /><ellipse fill-opacity=".5" cx="249" cy="156" rx="2" ry="2" /><path fill-opacity=".5" d="M72 137l7-3-22-15z" /><path fill-opacity=".5" d="M106 18l26 7 2-8z" /><path fill-opacity=".5" d="M219 93h52l-32-9z" /><path fill-opacity=".5" d="M27.8 158.2l-20.3-3 12 3.9 13-12.2z" /><ellipse fill-opacity=".5" rx="1" ry="1" transform="matrix(-3.0423 .10624 -.10586 -3.03136 159 101.4)" /><path fill-opacity=".5" d="M184 143h8v3h-8z" /><ellipse fill-opacity=".5" rx="1" ry="1" transform="matrix(-.16842 1.56834 -14.24355 -1.52957 234.8 75.5)" /><ellipse fill-opacity=".5" rx="1" ry="1" transform="matrix(-5.07077 -6.20614 2.1803 -1.78143 98.7 143.4)" /><path fill-opacity=".5" d="M197.8 172.3l9.4-3.6 5 13-9.4 3.6z" /><path fill-opacity=".5" d="M227 149l3 14-5 3z" /><path stroke-opacity=".5" d="M38.3 53q35.7 7.3 48.5.5" stroke-width=".5" /><path fill-opacity=".5" d="M109 148l-10-5 18-1z" /><path fill-opacity=".5" d="M87.8 144.3L75 153.6l4.2-7-55.6-3.3z" /><ellipse fill-opacity=".5" cx="119" cy="149" rx="2" ry="2" /><path fill-opacity=".5" d="M164 131l7-27 3 16z" /><path fill-opacity=".5" d="M83 142.2l.2-1 11.8 2.6-.2 1z" /><path fill-opacity=".5" d="M169 148h4v8h-4z" /><path fill-opacity=".5" d="M65 41h34v3H65z" /><path fill-opacity=".5" d="M148 118h13v15h-13z" /><path fill-opacity=".5" d="M254 154h2v5h-2z" /><path fill-opacity=".5" d="M26 147.7l-16.3-4.4.2-1 16.4 4.4z" /><path stroke-opacity=".5" d="M242.1 88.9q-16.8 43-12.8 56.5" stroke-width=".5" /><path fill-opacity=".5" d="M87 67l-7 5 24 19z" /><path fill-opacity=".5" d="M0 76h12v14H0z" /><path fill-opacity=".5" d="M85.2 115.6l-44-9.4 1.6-7.8 44 9.4z" /><path fill-opacity=".5" d="M104 108h1l1 12h-1z" /><path fill-opacity=".5" d="M17 185h14v2H17z" /><path fill-opacity=".5" d="M156.5 147.8l10.7-2.6.3 1-10.7 2.6z" /><path fill-opacity=".5" d="M89 164l-7-4h7z" /><path stroke-opacity=".5" d="M87.2 141.9q-70.6-6-99.9-11.4" stroke-width=".5" /><ellipse fill-opacity=".5" cx="194" cy="17" rx="29" ry="1" /><path fill-opacity=".5" d="M123 61h15v7h-15z" /><path fill-opacity=".5" d="M86 173v-1l54 3v1z" /><ellipse fill-opacity=".5" rx="1" ry="1" transform="matrix(-.23922 2.9278 -2.3571 -.1926 127.1 128)" /><path fill-opacity=".5" d="M94 0L-16 18l51-29z" /><path fill-opacity=".5" d="M237 50h19v4h-19z" /><path fill-opacity=".5" d="M70.6 67.3L33.3 51.9 24 57.5 69 61z" /><ellipse fill-opacity=".5" rx="1" ry="1" transform="matrix(.48481 -.87462 4.61232 2.55665 92.5 87.8)" /><ellipse fill-opacity=".5" cx="10" cy="94" rx="21" ry="1" /><path fill-opacity=".5" d="M140 156h4v2h-4z" /><path fill-opacity=".5" d="M139 148h13v2h-13z" /><path fill-opacity=".5" d="M78 184h20v3H78z" /><path fill-opacity=".5" d="M6 23l16 1.2 5.6 1.3 20.9 11.4z" /><path fill-opacity=".5" d="M160 90l39-5-35-6z" /><path fill-opacity=".5" d="M39 84h11v4H39z" /><path fill-opacity=".5" d="M17.7 26L.3 45.2l38.1-2L7.7 28.8z" /><path fill-opacity=".5" d="M2 46h13v3H2z" /><ellipse fill-opacity=".5" cx="218" cy="151" rx="11" ry="2" /><path fill-opacity=".5" d="M3 129h21v3H3z" /><path fill-opacity=".5" d="M260.6 115.8l-30.7 4.3-.5-4L260 112z" /><path fill-opacity=".5" d="M152.7 29.1l-35 32.2L129 40.1l35.4-6.6z" /><path fill-opacity=".5" d="M230.8 174.5l-31.5-23.3 45.4 35.7L230 150z" /><path fill-opacity=".5" d="M242.5 162l-.8-3 3.8-1 .8 3z" /><ellipse fill-opacity=".5" cx="194" cy="69" rx="3" ry="1" /><path fill-opacity=".5" d="M48.2 116.7l-8.5 5.9-33.3-4.8L-8 99.5z" /><ellipse fill-opacity=".5" cx="101" cy="185" rx="2" ry="2" /><path fill-opacity=".5" d="M64 168.7l.4 1-10.4 3.6-.4-1z" /><path fill-opacity=".5" d="M82.4 156.8l-.2-1 37.4-6.6.2 1z" /><path fill-opacity=".5" d="M35 169l9 13-13-5z" /><path fill-opacity=".5" d="M76.3 35.7l14-8.8 22.8-.3-68-2.7z" /><ellipse fill-opacity=".5" rx="1" ry="1" transform="matrix(-5.44404 1.86632 -.3243 -.94596 0 158.1)" /><path stroke-opacity=".5" d="M49.3 145.2q-60.7 13.5-60-34.3" stroke-width=".5" /><path fill-opacity=".5" d="M114 166l-.5.9L100 160l.4-.9z" /><path fill-opacity=".5" d="M187.9 116.7l34 .2-47.5 14.8 22.7.6z" /><path fill-opacity=".5" d="M62 28L44 42 28 30z" /><path fill-opacity=".5" d="M184 56h20v3h-20z" /><ellipse fill-opacity=".5" cx="170" cy="192" rx="30" ry="3" /><ellipse fill-opacity=".5" rx="1" ry="1" transform="matrix(1.84494 2.22672 -4.34457 3.59967 251.9 126)" /><ellipse fill-opacity=".5" cx="200" cy="212" rx="76" ry="5" /><path fill-opacity=".5" d="M8 55l41 20-18-23z" /><ellipse fill-opacity=".5" cx="141" cy="101" rx="3" ry="3" /><path fill-opacity=".5" d="M137.1 152.8L122 141l8.5 9.1 76.8 33.5z" /><path fill-opacity=".5" d="M111 172.9l28.3-10-79.7-14.5 84.5 13.7z" /><ellipse fill-opacity=".5" cx="255" cy="55" rx="28" ry="1" /><path fill-opacity=".5" d="M211.2 85.9l-35 18L184 114l3.7-12.7z" /><ellipse fill-opacity=".5" cx="2" cy="29" rx="3" ry="3" /><ellipse fill-opacity=".5" rx="1" ry="1" transform="matrix(-7.91766 -9.90878 1.78827 -1.42893 104.2 180.8)" /><path fill-opacity=".5" d="M237.9 152.9l1.7-2.5 6.5 4.7-1.7 2.5z" /><path fill-opacity=".5" d="M167 156h10v5h-10z" /><ellipse fill-opacity=".5" cx="213" cy="139" rx="2" ry="2" /><path fill-opacity=".5" d="M156 197h13v4h-13z" /><ellipse fill-opacity=".5" rx="1" ry="1" transform="rotate(35.1 -231.1 136) scale(17.17972 1)" /><path fill-opacity=".5" d="M177.3 145.7l-14.8-2.4.2-1 14.8 2.4z" /><path fill-opacity=".5" d="M240 152.9l10.5.3-3.2-6.7-24.8 13.3z" /><path fill-opacity=".5" d="M138 126h4v5h-4z" /><path fill-opacity=".5" d="M153 149.7l4.6-11.8 16.1-2.6-22.2.6z" /><ellipse fill-opacity=".5" rx="1" ry="1" transform="rotate(127.6 69.6 141.9) scale(3.35018 1.01411)" /><path fill-opacity=".5" d="M89.1 169.4l-.8-.5 8.6-12.3.8.5z" /><path fill-opacity=".5" d="M113 52h31v3h-31z" /><path fill-opacity=".5" d="M208.2 162.7l14.1-23.6 9.1 10.6-17.4-6.4z" /><path fill-opacity=".5" d="M204 126l20-9 16 4z" /><path fill-opacity=".5" d="M47 191h26v4H47z" /><path fill-opacity=".5" d="M192.9 156.5l.5.8-10.3 6.2-.5-.8z" /><path fill-opacity=".5" d="M247 68l-10 3h8z" /><path fill-opacity=".5" d="M136.3 171.3l-4.7 12.1-1.9-.7 4.7-12.1z" /><path fill-opacity=".5" d="M141 121h11v2h-11z" /><path fill-opacity=".5" d="M160 92l-.2-1 32.2-7 .2 1z" /><path fill-opacity=".5" d="M157 154h6v3h-6z" /><path fill-opacity=".5" d="M106.4 133l-.8-24h4l.8 24z" /><path fill-opacity=".5" d="M246 163h10v2h-10z" /><path fill-opacity=".5" d="M121 146.2l-2.1-4.6 8.1-3.8 2.1 4.6z" /><ellipse fill-opacity=".5" cx="13" cy="93" rx="1" ry="1" /><path fill-opacity=".5" d="M123.5 132h15v2h-15z" /><path fill-opacity=".5" d="M111.5 83.7L84.3 59.5l39.3 32 1.4-8.1z" /><ellipse fill-opacity=".5" cx="104" cy="139" rx="1" ry="1" /><ellipse fill-opacity=".5" rx="1" ry="1" transform="rotate(64.3 -96.7 189.9) scale(2.08095 6.10254)" /><path fill-opacity=".5" d="M26.2 110.5L-1 141.9l33.2-10.5-35 13z" /><path fill-opacity=".5" d="M141.2 40.5l29.4 2.8-23.8 11.8 14.1 2z" /><ellipse fill-opacity=".5" cx="64" cy="174" rx="4" ry="2" /><path fill-opacity=".5" d="M124 64l-36-7 9 18z" /><path fill-opacity=".5" d="M213 140h8v2h-8z" /><path fill-opacity=".5" d="M199 19.5l-25.6 5-.4-2 25.6-5z" /><path fill-opacity=".5" d="M82 168h26v3H82z" /><path fill-opacity=".5" d="M91.5 148.5l4.6-2 .4 1-4.6 2z" /><path fill-opacity=".5" d="M165 129h29v1h-29z" /><path fill-opacity=".5" d="M10 155h4v3h-4z" /><path fill-opacity=".5" d="M79 134h7v6h-7z" /><path fill-opacity=".5" d="M174 138l12 8h-5z" /><path fill-opacity=".5" d="M132.6 164.6l-.3 1-17-6.2.4-1z" /><path fill-opacity=".5" d="M226 41h30v10h-30z" /><path fill-opacity=".5" d="M144.6 163.1l-10.3 3.4 21.4-19.1-5.8 10.7z" /><path fill-opacity=".5" d="M21.8 153.7l.2 1-5.8 1.6-.2-1z" /><path fill-opacity=".5" d="M161.7 83.3l-34.2.5 21.8-3.6 30.6 14.3z" /><path fill-opacity=".5" d="M187.8 150.7l-8.2-14.6 5 5.6-5 16z" /><path fill-opacity=".5" d="M21.8 29.7l7.3 1.1-14.5 18.6 15.8-.4z" /><ellipse fill-opacity=".5" cx="67" cy="55" rx="15" ry="1" /><path fill-opacity=".5" d="M84 176h28v2H84z" /><path stroke-opacity=".5" d="M39.9 124q16.8-4.3 32.2 4.6" stroke-width=".5" /><path fill-opacity=".5" d="M88 151h5v2h-5z" /><ellipse fill-opacity=".5" cx="210" cy="128" rx="5" ry="3" /><path fill-opacity=".5" d="M57 177h24v3H57z" /><ellipse fill-opacity=".5" cx="223" cy="161" rx="3" ry="3" /><path stroke-opacity=".5" d="M99.4 90Q82.8 144.7 84 147.3" stroke-width=".5" /><path fill-opacity=".5" d="M113 142.1l-12-.2v-2l12 .2z" /><ellipse fill-opacity=".5" cx="16" cy="147" rx="8" ry="1" /><path fill-opacity=".5" d="M179.9 170l-9 20-4.5-8.4 29.8-9.6z" /><path fill-opacity=".5" d="M190.6 138l-17 5.5 22.9-4.2-1-3.6z" /><ellipse fill-opacity=".5" cx="204" cy="69" rx="10" ry="1" /><path fill-opacity=".5" d="M242 142l16 4-13-8z" /><path fill-opacity=".5" d="M130 197l7-19 4 21z" /><path fill-opacity=".5" d="M94.2 179l13-16.8 5.4-.9-7.9 14z" /><ellipse fill-opacity=".5" cx="245" cy="107" rx="12" ry="2" /><path fill-opacity=".5" d="M200 26h8v14h-8z" /><path fill-opacity=".5" d="M202 131l3-9 11-3z" /><path fill-opacity=".5" d="M260.4 13l-34.3 7.7h17.6l-11-6z" /><path fill-opacity=".5" d="M42 157l9 3-8-17z" /><path fill-opacity=".5" d="M214.5 183.4l3-17.5 6.9 17.3.1 9z" /><path stroke-opacity=".5" d="M205.8 142.7Q192.3 131.2 179 130" stroke-width=".5" /><path fill-opacity=".5" d="M85 137h15v2H85z" /><path fill-opacity=".5" d="M110 105h7v15h-7z" /><path fill-opacity=".5" d="M119.6 103.8l-3.3 2.2-4-5.8 3.4-2.2z" /><path fill-opacity=".5" d="M72 154h5v3h-5z" /><ellipse fill-opacity=".5" rx="1" ry="1" transform="matrix(-2.3727 -1.15212 2.0321 -4.18493 125.7 158.7)" /><path fill-opacity=".5" d="M253 64h3v3h-3z" /><ellipse fill-opacity=".5" cx="26" cy="167" rx="7" ry="2" /><ellipse fill-opacity=".5" rx="1" ry="1" transform="matrix(-.96989 1.50497 -4.6606 -3.00355 56.7 163)" /><path fill-opacity=".5" d="M208.2 21.2l19.5 4.3-24.2-10.1 1.1 9.9z" /><path fill-opacity=".5" d="M97 104h6v20h-6z" /><path fill-opacity=".5" d="M79 94h47v3H79z" /><path fill-opacity=".5" d="M209 102.3v-1l70-3.6v1z" /><path fill-opacity=".5" d="M176 38h20v2h-20z" /><path fill-opacity=".5" d="M110.2 137.6l-12 17.1L121 149l-16 1z" /><path fill-opacity=".5" d="M135 134l2-38 6 22z" /><path fill-opacity=".5" d="M89 143h7v3h-7z" /><path fill-opacity=".5" d="M211.2 19.4l-20.4 17.1 19.6 9.2L204 35z" /><path fill-opacity=".5" d="M83 147h5v3h-5z" /><path stroke-opacity=".5" d="M100.2 48.7q16.2 18.6 30 8" stroke-width=".5" /><path fill-opacity=".5" d="M115 95h54v4h-54z" /><path stroke-opacity=".5" d="M-8.7 119.5q27.3 8.4 48.6-.3" stroke-width=".5" /><ellipse fill-opacity=".5" cx="96" cy="153" rx="2" ry="2" /><path fill-opacity=".5" d="M47 164h-9l2 7z" /><path fill-opacity=".5" d="M262.4 55.7l.1 1-15 1.6v-1z" /><path stroke-opacity=".5" d="M224 69.8q13 4.4 20.6 3.7" stroke-width=".5" /><path fill-opacity=".5" d="M38.1 191.2l-11.8-3.7.9-18.7-13.2 4.4z" /><ellipse fill-opacity=".5" cx="139" cy="38" rx="7" ry="7" /><path fill-opacity=".5" d="M41 150h9v2h-9z" /><ellipse fill-opacity=".5" cx="111" cy="139" rx="2" ry="2" /><ellipse fill-opacity=".5" rx="1" ry="1" transform="matrix(1.83886 -.9329 .45243 .8918 1.5 174.5)" /><path fill-opacity=".5" d="M218.4 129.2l30.4-23-48.5 5.6 55.6 10z" /><ellipse fill-opacity=".5" cx="67" cy="51" rx="23" ry="2" /><path fill-opacity=".5" d="M245 169l13 4-19 2z" /><path fill-opacity=".5" d="M3 81h42v2H3z" /><path fill-opacity=".5" d="M54 52h8v5h-8z" /><path fill-opacity=".5" d="M181 176h4v9h-4z" /><path fill-opacity=".5" d="M176 108h3v7h-3z" /><path fill-opacity=".5" d="M184 162h12v2h-12z" /><path fill-opacity=".5" d="M2.4 147.3l1.1 1.7-6 3.7-1-1.7z" /><ellipse fill-opacity=".5" cx="210" cy="71" rx="3" ry="2" /><path fill-opacity=".5" d="M62.8 39L94 30.8l.7 8.5L108 33z" /><path fill-opacity=".5" d="M102.7 164.4l-.5 2-3-.8.6-2z" /><path fill-opacity=".5" d="M102 89.7l-3-.5 1-5 3 .6z" /><path fill-opacity=".5" d="M182 52h18v3h-18z" /><path fill-opacity=".5" d="M28 193.4l-33.3-74.7 22.5 3.6-24.2-6.7z" /><path fill-opacity=".5" d="M238.6 149.4l.4 1-5.6 2.2-.4-1z" /><path fill-opacity=".5" d="M192 63l-18-4 9 5z" /><path fill-opacity=".5" d="M39 146l-7 6 17-5z" /><path fill-opacity=".5" d="M181.7 133.5l.2 1-17.6 4-.2-1z" /><ellipse fill-opacity=".5" cx="230" cy="140" rx="2" ry="2" /><path stroke-opacity=".5" d="M-16 139.5q.2-35.6 150-48.9" stroke-width=".5" /><path fill-opacity=".5" d="M216 128h3v3h-3z" /><ellipse fill-opacity=".5" cx="228" cy="136" rx="2" ry="2" /><path fill-opacity=".5" d="M13 205.6l-.7-5 30.7-4.2.7 5z" /><path fill-opacity=".5" d="M83 44h23v4H83z" /><path fill-opacity=".5" d="M225 206.3l2.5-24.6 35.1-2.5-32.3 5z" /><path fill-opacity=".5" d="M193 205l-17-3 39-14z" /><ellipse fill-opacity=".5" cx="58" cy="92" rx="34" ry="1" /><path fill-opacity=".5" d="M174.4 147.5l4-.9 1.2 6-4 .8z" /><path fill-opacity=".5" d="M91 124.5l1.3 2.8-19.4 8.2-1.2-2.8z" /><path fill-opacity=".5" d="M232 138h13v4h-13z" /><path fill-opacity=".5" d="M145 125h7v10h-7z" /><path stroke-opacity=".5" d="M148.1 56.8q27.6 16.6 59.9 16.4" stroke-width=".5" /><ellipse fill-opacity=".5" cx="232" cy="72" rx="12" ry="1" /><path fill-opacity=".5" d="M230 93.3l-30.9 2-7.4-15.3-11.7 1.2z" /><ellipse fill-opacity=".5" cx="166" cy="75" rx="24" ry="2" /><path stroke-opacity=".5" d="M239.8 133.8q-2.1-5.8-67.5 5.8" stroke-width=".5" /><path fill-opacity=".5" d="M47 104h3v17h-3z" /><path fill-opacity=".5" d="M23.4 81.8l-.5-4 29.7-3.6.5 4z" /><path fill-opacity=".5" d="M156.6 181.3l-54 .6 49.6 5.6 8.4 3.7z" /><ellipse fill-opacity=".5" rx="1" ry="1" transform="rotate(-50.4 119.8 -120.8) scale(3.64012 2.71795)" /><ellipse fill-opacity=".5" cx="181" cy="148" rx="3" ry="3" /><path fill-opacity=".5" d="M59.4 163.1l9.6 8.7 6.3-5.8-17-1.6z" /><path fill-opacity=".5" d="M63 141h13v3H63z" /><path stroke-opacity=".5" d="M-16 80.8q35 20.9 67.7 5.5" stroke-width=".5" /><path fill-opacity=".5" d="M234.5-16L233 8.6l27.9-5 2.7 20z" /><path fill-opacity=".5" d="M93 162h6v2h-6z" /><path fill-opacity=".5" d="M144.1 194.4l-38.5-7.4 18.8-3.7 1.8 9.7z" /><path fill-opacity=".5" d="M236 125h9v5h-9z" /><path fill-opacity=".5" d="M129.5 107.3l1.5-2.6 3.5 2-1.5 2.6z" /><path fill-opacity=".5" d="M85.9 156.2l-16.1-5.5.3-1 16.1 5.6z" /><path fill-opacity=".5" d="M72 86l3-5 6 8z" /><path fill-opacity=".5" d="M49 154h2v18h-2z" /><path fill-opacity=".5" d="M195.9 167.6l-.3 1-33.5-10.2.3-1z" /><path fill-opacity=".5" d="M29 160h12v16H29z" /><ellipse fill-opacity=".5" rx="1" ry="1" transform="matrix(5.15061 -2.29966 1.45135 3.25062 149.4 44.7)" /><ellipse fill-opacity=".5" rx="1" ry="1" transform="rotate(159.8 47.8 99.1) scale(1 5.65848)" /><path fill-opacity=".5" d="M16.9 158.9l1.2-8 1 .2-1.2 8z" /><path fill-opacity=".5" d="M150 100h3v29h-3z" /><ellipse fill-opacity=".5" rx="1" ry="1" transform="matrix(1.16152 3.03634 -7.44967 2.8498 188 28.9)" /><ellipse fill-opacity=".5" rx="1" ry="1" transform="matrix(10.2824 -.72142 .09844 1.40309 1 154.7)" /><path fill-opacity=".5" d="M119 103l3 6 1-11z" /><ellipse fill-opacity=".5" rx="1" ry="1" transform="matrix(6.99115 -.18002 .15295 5.93987 217.2 45.2)" /><path fill-opacity=".5" d="M57.1 155.6l14 10.8-22.8-22.3-4.4-5.6z" /><path fill-opacity=".5" d="M257.2 148.7L246 129.8l.9-.5 11.3 18.9z" /><path fill-opacity=".5" d="M-4 194.3l-11.8-13 24.4-6.1 2-19.1z" /><path fill-opacity=".5" d="M177.4 3.4L159.6 8l-34.4-24 65.2 20.2z" /><path fill-opacity=".5" d="M241 212l11-17-12 6z" /><path fill-opacity=".5" d="M127 183h6v9h-6z" /><ellipse fill-opacity=".5" cx="50" cy="167" rx="3" ry="3" /><ellipse fill-opacity=".5" cx="99" cy="125" rx="3" ry="3" /><path stroke-opacity=".5" d="M201.5 135.7q-44.4-3.5-55.8 1" stroke-width=".5" /><path fill-opacity=".5" d="M143 92h20v2h-20z" /><ellipse fill-opacity=".5" rx="1" ry="1" transform="rotate(143.9 -26.4 91.7) scale(8.32656 1.57753)" /><path fill-opacity=".5" d="M84 151h11v1H84z" /><ellipse fill-opacity=".5" rx="1" ry="1" transform="matrix(-.56557 -2.05328 4.71906 -1.29985 118.5 36)" /><path fill-opacity=".5" d="M63 146h17v1H63z" /><path stroke-opacity=".5" d="M183.9 184.2q-17.1-1.1-42-18" stroke-width=".5" /><path fill-opacity=".5" d="M245 72h11v2h-11z" /><path fill-opacity=".5" d="M205 138h4v7h-4z" /><path fill-opacity=".5" d="M178.4 140l.1 1-13 1v-1z" /><path fill-opacity=".5" d="M124.7 3.5L181 15.9 102.8-16 144.4.5z" /><ellipse fill-opacity=".5" cx="174" cy="101" rx="3" ry="3" /><path fill-opacity=".5" d="M70 142.4l28.5 22-6.5-3.5-31.3-25z" /><ellipse fill-opacity=".5" cx="191" cy="96" rx="33" ry="1" /><path fill-opacity=".5" d="M229 153h5v2h-5z" /><path fill-opacity=".5" d="M9 119L4 94l-3 23z" /><path fill-opacity=".5" d="M102 41.5l-.8-.6 4.7-6.4.9.6z" /><path fill-opacity=".5" d="M51 192l-3-8 16 1z" /><path fill-opacity=".5" d="M-12.4 161.1l-3.6 10.3v-3.7l50.9 9.3z" /><ellipse fill-opacity=".5" rx="1" ry="1" transform="matrix(5.78372 3.81366 -1.61315 2.44646 175.6 35.4)" /><path fill-opacity=".5" d="M117.7 130l-2 .5-3.4-14.6 2-.4z" /><path fill-opacity=".5" d="M94 32h4v3h-4z" /><ellipse fill-opacity=".5" cx="149" cy="176" rx="3" ry="3" /><path fill-opacity=".5" d="M263 34l-31-13-26 13z" /><ellipse fill-opacity=".5" cx="100" cy="100" rx="3" ry="2" /><path fill-opacity=".5" d="M125.5 150.4l2-5.4-5.5-9.5 4 30.4z" /><path fill-opacity=".5" d="M166 147h8v5h-8z" /><path fill-opacity=".5" d="M184.8 153l.5-.9 9.9 4.9-.5.9z" /><path stroke-opacity=".5" d="M139.8 26.5q9.4 8.4 22.6-.6" stroke-width=".5" /><path fill-opacity=".5" d="M117 71h6v8h-6z" /><path fill-opacity=".5" d="M113 56h20v4h-20z" /><path fill-opacity=".5" d="M60 156l12-4-2-5z" /><path fill-opacity=".5" d="M123.5 76.8l15.8 6-34.3 7.7-2.1-1.3z" /><path fill-opacity=".5" d="M114 24h43v3h-43z" /><path fill-opacity=".5" d="M242.8 78.7l-.2 1-59.4-8.4.2-1z" /><ellipse fill-opacity=".5" cx="20" cy="154" rx="2" ry="2" /><path fill-opacity=".5" d="M207 159h7v2h-7z" /><path fill-opacity=".5" d="M25 151l-1 7 11-14z" /><path fill-opacity=".5" d="M188 67h43v2h-43z" /><path fill-opacity=".5" d="M93 178h26v5H93z" /><path fill-opacity=".5" d="M116.8 136.3l16.4.3-1.7-4.3H81.8z" /><ellipse fill-opacity=".5" cx="255" cy="182" rx="6" ry="3" /><path fill-opacity=".5" d="M200 142.8l-.8-2.9 2.9-.7.7 2.9z" /><path fill-opacity=".5" d="M114.9 46.7l10.6-7.1-20.7-3.7 11.3 7.9z" /><path fill-opacity=".5" d="M197.8 54.5l12.1-7.7-11.8 2.6 1-4.8z" /><path fill-opacity=".5" d="M5 124l3-4H-3z" /><path fill-opacity=".5" d="M86 149h10v2H86z" /><path fill-opacity=".5" d="M182 40.6l24.5 4.8-.4 2-24.6-4.8z" /><path fill-opacity=".5" d="M191 149.5h4v3h-4z" /><path fill-opacity=".5" d="M112 40l-6 5-1-2z" /><ellipse fill-opacity=".5" rx="1" ry="1" transform="matrix(-7.5072 -1.56954 .28801 -1.37756 136.5 157.6)" /><ellipse fill-opacity=".5" cx="148" cy="107" rx="3" ry="3" /><ellipse fill-opacity=".5" rx="1" ry="1" transform="rotate(-86.4 86.2 44) scale(3.64217 6.78789)" /><path fill-opacity=".5" d="M198 130h2v15h-2z" /><path fill-opacity=".5" d="M30.6 141.7l-2.4 3.2-.8-.6 2.4-3.2z" /><ellipse fill-opacity=".5" cx="255" cy="68" rx="5" ry="2" /><path fill-opacity=".5" d="M239 97h17v1h-17z" /><ellipse fill-opacity=".5" cx="139" cy="147" rx="2" ry="2" /><path fill-opacity=".5" d="M218 66h12v4h-12z" /><path fill-opacity=".5" d="M189 174l-1 10 8-9z" /><path stroke-opacity=".5" d="M187 121.9q-17.8 18-23.6 15.8" stroke-width=".5" /><ellipse fill-opacity=".5" rx="1" ry="1" transform="matrix(-.37299 -2.3179 47.8271 -7.6962 74.7 21)" /><path fill-opacity=".5" d="M16 82h12v4H16z" /><path fill-opacity=".5" d="M82 133h29v3H82z" /><path fill-opacity=".5" d="M101.3 80.3L99 78.4l3.7-4.7 2.3 1.9z" /><path fill-opacity=".5" d="M204 135l-6 2-2-4z" /><ellipse fill-opacity=".5" cx="212" cy="73" rx="4" ry="1" /><path fill-opacity=".5" d="M269.6 137.4l-65-2.6 41 3.7 25.4-17.9z" /><path fill-opacity=".5" d="M25.6 178.1l5.4-8.4 3.4 2.2-5.4 8.4z" /><path fill-opacity=".5" d="M56 64.2l-14.1-7.6L57 58l27.5 21.7z" /><ellipse fill-opacity=".5" cx="255" cy="187" rx="22" ry="3" /><ellipse fill-opacity=".5" cx="152" cy="151" rx="2" ry="2" /><path fill-opacity=".5" d="M199.6 28l3.9-10.3 1 .3-4 10.3z" /><path fill-opacity=".5" d="M195.7 109.8l1.7-6.8 4.9 1.2-1.7 6.8z" /><ellipse fill-opacity=".5" cx="225" cy="147" rx="3" ry="3" /><ellipse fill-opacity=".5" rx="1" ry="1" transform="matrix(1.635 3.5414 -1.00928 .46597 53 82.8)" /><path fill-opacity=".5" d="M206 67h32v1h-32z" /><ellipse fill-opacity=".5" rx="1" ry="1" transform="matrix(-1.07638 -1.45746 4.51647 -3.33554 136 101.3)" /><path fill-opacity=".5" d="M30 135h27v1H30z" /><path stroke-opacity=".5" d="M15.4 150q-16.3-8.5-31.4 5.3" stroke-width=".5" /><ellipse fill-opacity=".5" cx="17" cy="102" rx="9" ry="1" /><path fill-opacity=".5" d="M150.1 57.5l25 4.7 17 8.8-34-.1z" /><path fill-opacity=".5" d="M56 44h42v1H56z" /><path fill-opacity=".5" d="M183 167l-13 4h18z" /><path fill-opacity=".5" d="M158 134l15-7 10 3z" /><ellipse fill-opacity=".5" rx="1" ry="1" transform="matrix(.3654 .93085 -2.73072 1.07194 198 21.5)" /><path fill-opacity=".5" d="M-16.9 22.1l-.9-5L69 2l.9 5z" /><path fill-opacity=".5" d="M144 164h18v2h-18z" /><ellipse fill-opacity=".5" cx="92" cy="165" rx="2" ry="2" /><path fill-opacity=".5" d="M166.2 163.3l.7.8-3.1 2.6-.7-.8z" /><path fill-opacity=".5" d="M160 149.3l9.8 7-1.7 2.4-9.9-7z" /><path stroke-opacity=".5" d="M11 132.5q-6.5 4.8 1.7 14.7" stroke-width=".5" /><ellipse fill-opacity=".5" rx="1" ry="1" transform="matrix(-.15118 -.9885 29.51959 -4.5146 65.7 39)" /><path fill-opacity=".5" d="M51.2 141l.2 1-12.6 3-.2-1z" /><ellipse fill-opacity=".5" cx="197" cy="71" rx="1" ry="1" /><path stroke-opacity=".5" d="M230.8 134.5q-5.7 30.8-15.6 56.4" stroke-width=".5" /><path fill-opacity=".5" d="M195 142h11v3h-11z" /><path fill-opacity=".5" d="M116 141h3v6h-3z" /><ellipse fill-opacity=".5" cx="150" cy="137" rx="2" ry="2" /><ellipse fill-opacity=".5" cx="201" cy="70" rx="2" ry="1" /><path fill-opacity=".5" d="M99 146h2v3h-2z" /><path fill-opacity=".5" d="M100.9 165.7l-10.4-3.5.6-2 10.4 3.6z" /><path fill-opacity=".5" d="M83 120h10v6H83z" /><ellipse fill-opacity=".5" rx="1" ry="1" transform="matrix(10.3072 -.72075 .06976 .99756 180 135)" /><ellipse fill-opacity=".5" cx="93" cy="185" rx="1" ry="1" /><ellipse fill-opacity=".5" cx="198" cy="45" rx="2" ry="2" /><path fill-opacity=".5" d="M233 83l14-9-23 6z" /><path stroke-opacity=".5" d="M188.2 161.2q-50.2-20.3-63.4-24.7" stroke-width=".5" /><ellipse fill-opacity=".5" cx="97" cy="172" rx="2" ry="2" /><path fill-opacity=".5" d="M79 93l-2 8h4z" /><path fill-opacity=".5" d="M77 193l-5.7-1.6L75 179l5.8 1.7z" /><ellipse fill-opacity=".5" rx="1" ry="1" transform="rotate(84.7 -43.4 53.4) scale(1 20.62815)" /><ellipse fill-opacity=".5" cx="148" cy="161" rx="2" ry="2" /><ellipse fill-opacity=".5" cx="170" cy="159" rx="1" ry="1" /><ellipse fill-opacity=".5" rx="1" ry="1" transform="matrix(-1.67382 -2.47222 1.14719 -.7767 69.6 101)" /><path fill-opacity=".5" d="M208 172h3v5h-3z" /><path fill-opacity=".5" d="M159 198.7l-9.7 16.6-2.5-7.5 4.6-18.5z" /><path fill-opacity=".5" d="M158 164h-4v-2h4z" /><path fill-opacity=".5" d="M131 28h12v4h-12z" /><path fill-opacity=".5" d="M210 142h7v3h-7z" /><path fill-opacity=".5" d="M62.2 96.9l10.3 14.8 15.1 9.1-24.5.9z" /><ellipse fill-opacity=".5" cx="89" cy="178" rx="2" ry="2" /><path fill-opacity=".5" d="M120.6 169.3l18.9 2.4-.1 1-18.9-2.4z" /><path fill-opacity=".5" d="M177.8 128.1l-2.4-1.8 4.8-6.4 2.4 1.8z" /><path fill-opacity=".5" d="M69.5 39.5l-1.4 10.3 52.4 4.7-42.7-7.3z" /><path fill-opacity=".5" d="M258.5 78.2l-11.8-1L262.9 90l-42.1-5.9z" /><path fill-opacity=".5" d="M79.4 169l1 .4-1.8 3.6-1-.4z" /><ellipse fill-opacity=".5" cx="69" cy="54" rx="27" ry="1" /><path fill-opacity=".5" d="M173 149l-4-5-7 12z" /><path stroke-opacity=".5" d="M92 143q34.9-3 57.3-2.4" stroke-width=".5" /><path fill-opacity=".5" d="M177.5 118.3l14.2-3.3 43.4-14.8-18.2 1.6z" /><path stroke-opacity=".5" d="M-16 69.9q0-28 25.5-20" stroke-width=".5" /><path fill-opacity=".5" d="M186 131h13v2h-13z" /><ellipse fill-opacity=".5" cx="96" cy="168" rx="2" ry="2" /><path fill-opacity=".5" d="M218.7 97l.4 1-17.8 9-.4-1z" /><path fill-opacity=".5" d="M95.7 157.4l.5 1-8 4.2-.4-1z" /><ellipse fill-opacity=".5" cx="162" cy="37" rx="4" ry="3" /><path fill-opacity=".5" d="M129 52h10v7h-10z" /><path fill-opacity=".5" d="M171.5 161.8l-8.2 6.4 5.5.9 10.2-28.9z" /><ellipse fill-opacity=".5" cx="187" cy="160" rx="4" ry="1" /><path fill-opacity=".5" d="M120 19.3l-3.7 17v1.3l-4.3-7.3z" /><path fill-opacity=".5" d="M226 188h15v10h-15z" /><ellipse fill-opacity=".5" cx="121" cy="150" rx="2" ry="2" /><ellipse fill-opacity=".5" cx="136" cy="161" rx="2" ry="2" /><path fill-opacity=".5" d="M191 96l26-1-14 8z" /><path fill-opacity=".5" d="M93 92h1v4h-1z" /><path fill-opacity=".5" d="M80 92h10v2H80z" /><path fill-opacity=".5" d="M1 100l-2-4-15 7z" /><ellipse fill-opacity=".5" cx="28" cy="140" rx="21" ry="1" /><path fill-opacity=".5" d="M86.2 170.2l.8.6-15.2 21-.8-.6z" /><path fill-opacity=".5" d="M131.3 20.3L121-1.5 44.7 11.1l75.4-6.3z" /><path fill-opacity=".5" d="M239 142h3v6h-3z" /><path fill-opacity=".5" d="M111.2 60l-4.3 4.2-2.1-2.2 4.3-4.2z" /><path fill-opacity=".5" d="M214.7 69.9l-.4 3-5-.8.4-3z" /><ellipse fill-opacity=".5" cx="167" cy="52" rx="13" ry="4" /><path fill-opacity=".5" d="M208.4 79l.2-.7-24.3-6.2.2 6z" /><ellipse fill-opacity=".5" cx="25" cy="148" rx="2" ry="2" /><ellipse fill-opacity=".5" cx="209" cy="178" rx="19" ry="2" /><path fill-opacity=".5" d="M247.6 129.1l.7 15.2h-5.9l3.2-1z" /><path fill-opacity=".5" d="M73 65h23v4H73z" /><path fill-opacity=".5" d="M240 154h7v4h-7z" /><path fill-opacity=".5" d="M93 142.3l-.2 1-7.8-1.6.2-1z" /><path fill-opacity=".5" d="M239 64.9v-2l12 .2v2z" /><path fill-opacity=".5" d="M218 134h3v2h-3z" /><path fill-opacity=".5" d="M171 113h6v10h-6z" /><path fill-opacity=".5" d="M224.5 71.3v1l-5 .4v-1z" /><path stroke-opacity=".5" d="M219.2 54.7q26 15.8 51.8-5" stroke-width=".5" /><ellipse fill-opacity=".5" cx="109" cy="28" rx="2" ry="2" /><path fill-opacity=".5" d="M26 143h1v10h-1z" /><path fill-opacity=".5" d="M167.3 32l12 5 8.8 8.4-8.9-12z" /><path fill-opacity=".5" d="M60 146.6l-8.6 8.3-1.4-1.5 8.6-8.3z" /><ellipse fill-opacity=".5" cx="218" cy="3" rx="11" ry="2" /><ellipse fill-opacity=".5" rx="1" ry="1" transform="matrix(-.12741 -1.09546 5.15335 -.59938 157.8 91.7)" /><path fill-opacity=".5" d="M43 196h108v5H43z" /><ellipse fill-opacity=".5" rx="1" ry="1" transform="matrix(-2.45206 -1.36684 1.67666 -3.00787 76 74.8)" /><path fill-opacity=".5" d="M177 45h7v3h-7z" /><path fill-opacity=".5" d="M128.5 38.8l-12.8 8.5 17.3-5.5 3.2-3.7z" /><ellipse fill-opacity=".5" cx="189" cy="143" rx="3" ry="3" /><path fill-opacity=".5" d="M142.9 153.1l5.3 1.3-1-3.4-9.7-2.7z" /><path stroke-opacity=".5" d="M27.8 83.1q42 14.5 47.6 7" stroke-width=".5" /><path fill-opacity=".5" d="M131 76h18v4h-18z" /><ellipse fill-opacity=".5" cx="234" cy="158" rx="3" ry="3" /><ellipse fill-opacity=".5" cx="175" cy="160" rx="5" ry="1" /><path fill-opacity=".5" d="M160 179h15v7h-15z" /><path fill-opacity=".5" d="M146 182h7v3h-7z" /><path fill-opacity=".5" d="M-15.9 49.9l31 .2 15.4 21.8-13-15.2z" /><path fill-opacity=".5" d="M60.9 153.6l-2-.2.2-3 2 .2z" /><path fill-opacity=".5" d="M30 48h26v4H30z" /><path fill-opacity=".5" d="M63 171.2l3.7-1.4.4 1-3.8 1.4z" /><path fill-opacity=".5" d="M125 28h7v6h-7z" /><path fill-opacity=".5" d="M46 53l-.1 1-6-1 .2-1z" /><ellipse fill-opacity=".5" cx="96" cy="148" rx="1" ry="1" /><ellipse fill-opacity=".5" cx="45" cy="206" rx="53" ry="4" /><ellipse fill-opacity=".5" cx="146" cy="144" rx="4" ry="3" /><path fill-opacity=".5" d="M91 91l-14-1 20-5z" /><path fill-opacity=".5" d="M231 56h7v3h-7z" /><path fill-opacity=".5" d="M8 22h44v3H8z" /><path fill-opacity=".5" d="M253.2 25.9l11.6-10-24.3-4.2L271 11z" /><ellipse fill-opacity=".5" rx="1" ry="1" transform="matrix(6.71576 -1.0548 .31697 2.0181 126.4 167.5)" /><path fill-opacity=".5" d="M115 142.7l-1.8-4.7 1.8-.7 1.8 4.7z" /><ellipse fill-opacity=".5" cx="116" cy="153" rx="2" ry="2" /><path fill-opacity=".5" d="M51 136h6v8h-6z" /><path fill-opacity=".5" d="M77.8 193.8l19.1 21 17.6-17.4 7.4 20.3z" /><path fill-opacity=".5" d="M161 138.5l1.2-3.9 2.8 1-1.2 3.8z" /><path fill-opacity=".5" d="M134 109h1v6h-1z" /><ellipse fill-opacity=".5" cx="199" cy="149" rx="2" ry="2" /><path fill-opacity=".5" d="M23.6 152.4l-3.6-1.9.4-.9 3.6 1.9z" /><path fill-opacity=".5" d="M132 122.4l1-9.3-4.7-12.2 4 29.1z" /><path fill-opacity=".5" d="M144.1 87.4l17.8 36-18.2 14.9 13.5-12.6z" /><path fill-opacity=".5" d="M225.6 165.7l2-6.3-16-3.2 7.8-4.6z" /><path fill-opacity=".5" d="M177.5 162.8l-4.7 6.5-1.1 14.1 9.7-28.8z" /><path stroke-opacity=".5" d="M265.6 121q-35.8-7.4-37 10.7" stroke-width=".5" /><ellipse fill-opacity=".5" cx="215" cy="114" rx="3" ry="3" /><path fill-opacity=".5" d="M25.3 158.4l-10.5 5 .9-5.7 25.6-3z" /><path fill-opacity=".5" d="M117 158h3v5h-3z" /><path fill-opacity=".5" d="M193 125l-2-10 14-4z" /><path fill-opacity=".5" d="M138.6 92.8L121 83.3l34.5 5.5-21-.9z" /><path fill-opacity=".5" d="M158 15.6l-40.4 1.6 35.2-7 43.6 7.5z" /><path fill-opacity=".5" d="M178 36.4l-13.8 2.2-.2-1 13.8-2.2z" /><ellipse fill-opacity=".5" cx="141" cy="128" rx="3" ry="4" /><path fill-opacity=".5" d="M182 41l-28 9 11 2z" /><path fill-opacity=".5" d="M239.6 103.2l-23.3 1.7 4.5 4.4 7.8.6z" /><path fill-opacity=".5" d="M111.8 150.9l1.2 1.6-.8.6-1.2-1.6z" /><ellipse fill-opacity=".5" cx="125" cy="94" rx="16" ry="1" /><ellipse fill-opacity=".5" cx="43" cy="144" rx="2" ry="2" /><path stroke-opacity=".5" d="M258.6 129.3q-36.5 4.5-59.3 4.6" stroke-width=".5" /><path stroke-opacity=".5" d="M207.7 54q-11.1-20.5-18.8-19.7" stroke-width=".5" /><path fill-opacity=".5" d="M215 112l-6-5-8 16z" /><ellipse fill-opacity=".5" cx="116" cy="212" rx="30" ry="5" /><path fill-opacity=".5" d="M164 175h11v4h-11z" /><path stroke-opacity=".5" d="M170.1 127.4q-22.5 15.5-11 35.4" stroke-width=".5" /><path fill-opacity=".5" d="M185 65h23v2h-23z" /><path fill-opacity=".5" d="M232 160h11v6h-11z" /><path fill-opacity=".5" d="M180 104h14v6h-14z" /><path fill-opacity=".5" d="M175.6 154l.7-.6 6.1 6.6-.7.6z" /><path fill-opacity=".5" d="M27.3 154.4l6.7-7.5.7.7-6.7 7.5z" /><path fill-opacity=".5" d="M149 138.5h2v3h-2z" /><path fill-opacity=".5" d="M235.9 157.1l-.5-.9 2.7-1.3.5.9z" /><ellipse fill-opacity=".5" cx="19" cy="146" rx="2" ry="2" /><path fill-opacity=".5" d="M15 122l21.2 7.4L-2 116.6l12 .6z" /><path fill-opacity=".5" d="M182 184h44v2h-44z" /><path fill-opacity=".5" d="M25 181l12 7 14-5z" /><ellipse fill-opacity=".5" cx="9" cy="49" rx="1" ry="1" /><ellipse fill-opacity=".5" rx="1" ry="1" transform="rotate(174.6 98.2 10.5) scale(25.9679 2.02349)" /><path fill-opacity=".5" d="M127 139.5l3.5 3.6-1.4 1.4-3.6-3.6z" /><ellipse fill-opacity=".5" cx="171" cy="155" rx="2" ry="2" /><ellipse fill-opacity=".5" cx="142" cy="171" rx="6" ry="6" /><ellipse fill-opacity=".5" cx="59" cy="99" rx="2" ry="2" /><ellipse fill-opacity=".5" cx="163" cy="152" rx="1" ry="1" /><path fill-opacity=".5" d="M220-2l33 4 18-18z" /><ellipse fill-opacity=".5" rx="1" ry="1" transform="matrix(-65.98603 8.49638 -.17883 -1.38882 59.3 15.5)" /><path fill-opacity=".5" d="M172.4 87.4l-5 7 47.5 1.7-7.3-2.4z" /><ellipse fill-opacity=".5" cx="88" cy="97" rx="16" ry="1" /><path fill-opacity=".5" d="M144 103h2v27h-2z" /><path stroke-opacity=".5" d="M238.5 71.6Q258 66 258.8 84" stroke-width=".5" /><path fill-opacity=".5" d="M18.4 133l67 3.9-51.7-13.4 76.2 7.7z" /><path fill-opacity=".5" d="M53 176h32v1H53z" /><path fill-opacity=".5" d="M216 145h11v4h-11z" /><path stroke-opacity=".5" d="M191.1 149.4q11.5 30.7-26.3 39.1" stroke-width=".5" /><path fill-opacity=".5" d="M150 66.2l-12.6-8.7 4.1 24-2.7 1z" /><path fill-opacity=".5" d="M23 128.6l-12.9 10.6 17.4-4.7-7 7z" /><path fill-opacity=".5" d="M244.8 159l19.3 24.5-22.4 4.5 29.3-6.4z" /><path fill-opacity=".5" d="M49 27l29-5 13 11z" /><ellipse fill-opacity=".5" cx="251" cy="157" rx="1" ry="1" /><path fill-opacity=".5" d="M219 97h13v4h-13z" /><ellipse fill-opacity=".5" cx="209" cy="141" rx="3" ry="3" /><path stroke-opacity=".5" d="M126.5 43Q105.8 65.6 95 53" stroke-width=".5" /><ellipse fill-opacity=".5" rx="1" ry="1" transform="matrix(1.88725 -.80758 2.65959 6.2152 192.5 25.6)" /><path stroke-opacity=".5" d="M159.4 200.7q8.4-41.7.1-44.9" stroke-width=".5" /><path fill-opacity=".5" d="M43.2 167l-.3-1 3.9-1 .3 1z" /><path fill-opacity=".5" d="M146.5 166l1 .2-2 7.8-1-.2z" /><ellipse fill-opacity=".5" cx="180" cy="137" rx="2" ry="2" /><ellipse fill-opacity=".5" cx="226" cy="175" rx="2" ry="2" /><path fill-opacity=".5" d="M224.4 133h1l-1.8 20h-1z" /><path fill-opacity=".5" d="M230 191l-15 13 1-11z" /><path fill-opacity=".5" d="M41.2 90l7-13.3 2.6 1.4-7 13.2z" /><ellipse fill-opacity=".5" cx="76" cy="239" rx="255" ry="7" /><path fill-opacity=".5" d="M93 98h2v25h-2z" /><ellipse fill-opacity=".5" cx="123" cy="155" rx="2" ry="5" /><path fill-opacity=".5" d="M146 147h8v2h-8z" /><path fill-opacity=".5" d="M13 76l14-4-16-15z" /><path fill-opacity=".5" d="M72 138h15v2H72z" /><path stroke-opacity=".5" d="M203.6 143.8q-2.2-12.4-13.7-20.8" stroke-width=".5" /><path fill-opacity=".5" d="M201.5 176v11.2l3.2-6.8-5-24.1z" /><ellipse fill-opacity=".5" cx="184" cy="140" rx="2" ry="2" /><path fill-opacity=".5" d="M113.2 76.7l-4.4 2.5-8-13.9 4.4-2.5z" /><ellipse fill-opacity=".5" cx="39" cy="123" rx="11" ry="1" /><ellipse fill-opacity=".5" rx="1" ry="1" transform="matrix(1.67819 4.73905 -2.63723 .9339 90.5 102.8)" /><path stroke-opacity=".5" d="M28.1 43Q41.5 61.5 65 56.5" stroke-width=".5" /><ellipse fill-opacity=".5" cx="241" cy="73" rx="1" ry="1" /><path fill-opacity=".5" d="M122 118h7v6h-7z" /><path fill-opacity=".5" d="M79 148.2l-2.5-1.5.5-.9 2.5 1.5z" /><ellipse fill-opacity=".5" rx="1" ry="1" transform="matrix(-.15204 -.98837 2.75146 -.42326 161.4 130.7)" /><path stroke-opacity=".5" d="M120.7 53q43.2 5.4 99.6-1.5" stroke-width=".5" /><ellipse fill-opacity=".5" cx="104" cy="140" rx="1" ry="1" /><path fill-opacity=".5" d="M132 48v-5l-14 8z" /><ellipse fill-opacity=".5" rx="1" ry="1" transform="matrix(.25634 -.96659 31.10155 8.24825 9.8 115.6)" /><path stroke-opacity=".5" d="M100.8 172.6q-19.7-8.6-28.6-24.2" stroke-width=".5" /><path fill-opacity=".5" d="M132 130.4l-.9-.3 2.8-8.5 1 .3z" /><path fill-opacity=".5" d="M196.7 99.1l.6.8-4 3-.6-.8z" /><ellipse fill-opacity=".5" cx="77" cy="93" rx="1" ry="1" /><path fill-opacity=".5" d="M165.7 142.7l.3 1-5.7 1.6-.3-1z" /><ellipse fill-opacity=".5" cx="140" cy="152" rx="1" ry="1" /><path fill-opacity=".5" d="M227.5 104.6l1.1-6 4 .8-1.2 6z" /><ellipse fill-opacity=".5" cx="148" cy="139" rx="1" ry="1" /><path stroke-opacity=".5" d="M212.6 51.1q-16.7-7-35.7 5.4" stroke-width=".5" /><path fill-opacity=".5" d="M123.6 165.7l-9.7 10-1.5-1.4 9.7-10z" /><ellipse fill-opacity=".5" cx="113" cy="168" rx="4" ry="1" /><path stroke-opacity=".5" d="M131.3 149.8q15.2-5.4 33.4 7.3" stroke-width=".5" /><ellipse fill-opacity=".5" cx="130" cy="163" rx="2" ry="2" /><path fill-opacity=".5" d="M16.6 185.3l14.3 6.8-43.5 8.3 43.4-2.4z" /><path fill-opacity=".5" d="M206 156l2 4-12 4z" /><path fill-opacity=".5" d="M125.5 149.2l2.8-4.1 8.2 5.7-2.8 4.1z" /><ellipse fill-opacity=".5" cx="229" cy="155" rx="1" ry="1" /><ellipse fill-opacity=".5" rx="1" ry="1" transform="matrix(.45295 -1.08281 8.80817 3.68454 204.3 161)" /><path fill-opacity=".5" d="M213.8 183.3l-13.2 5.5-3.6-3 5.6 7z" /><path fill-opacity=".5" d="M261 201.4l10 2.3-24.7-11.7-14.2 6.7z" /><path fill-opacity=".5" d="M50.2 74.6l9.2 1-31.1 5.7 38.5-25.5z" /><path fill-opacity=".5" d="M157.5 158.3l2-.5 1 3.9-2 .5z" /><path fill-opacity=".5" d="M32.9 100.7l-4.3-2.6.5-.8 4.3 2.6z" /><ellipse fill-opacity=".5" cx="187" cy="158" rx="1" ry="5" /><path fill-opacity=".5" d="M152.3 197.5l19.1-.3-13.3-12.3 24.2 4.2z" /><path fill-opacity=".5" d="M155 183.9l-1.7 1.8 2.6-15-6.7 8.2z" /><path fill-opacity=".5" d="M10 133h5v4h-5z" /><ellipse fill-opacity=".5" cx="71" cy="193" rx="4" ry="9" /><path fill-opacity=".5" d="M209 46l-7-2 3-1z" /><path fill-opacity=".5" d="M24.4 124.1l.3-1 2.9.8-.3 1z" /><path fill-opacity=".5" d="M255.6 60.3l-3.6-1.7.4-.9 3.6 1.7z" /><path fill-opacity=".5" d="M39.6 102.5l-1.9-3.6 2.7-1.4 1.9 3.6z" /><path fill-opacity=".5" d="M179 53h9v4h-9z" /><path fill-opacity=".5" d="M72 104h19v21H72z" /><ellipse fill-opacity=".5" rx="1" ry="1" transform="matrix(-.08222 .99661 -32.91342 -2.71531 69.4 61.8)" /><path fill-opacity=".5" d="M47 144l.6-.7 7.5 6.7-.7.7z" /><ellipse fill-opacity=".5" cx="221" cy="156" rx="2" ry="2" /></g></symbol><symbol viewBox="-90 0 512 512" id="scroll"><path d="M166.238 430.145l-89.77-94.899 29.06-27.488 60.632 64.097 60.274-64.058 29.132 27.41zM332 392V120C332 53.832 278.168 0 212 0h-92C53.832 0 0 53.832 0 120v272c0 66.168 53.832 120 120 120h92c66.168 0 120-53.832 120-120zM212 40c44.113 0 80 35.887 80 80v272c0 44.113-35.887 80-80 80h-92c-44.113 0-80-35.887-80-80V120c0-44.113 35.887-80 80-80zm-46 41c-11.047 0-20 8.953-20 20s8.953 20 20 20 20-8.953 20-20-8.953-20-20-20zm0 80c-11.047 0-20 8.953-20 20s8.953 20 20 20 20-8.953 20-20-8.953-20-20-20zm0 80c-11.047 0-20 8.953-20 20s8.953 20 20 20 20-8.953 20-20-8.953-20-20-20zm0 0" /></symbol><symbol viewBox="0 0 24 24" id="tick"><path d="M20.285 2L9 13.567 3.714 8.556 0 12.272 9 21 24 5.715z" /></symbol><symbol viewBox="0 0 459 459" id="trash"><path d="M76.5 408c0 28.05 22.95 51 51 51h204c28.05 0 51-22.95 51-51V102h-306v306zM408 25.5h-89.25L293.25 0h-127.5l-25.5 25.5H51v51h357v-51z" /></symbol><symbol viewBox="0 0 482.9 482.9" id="user"><path d="M239.7 260.2h3.2c29.3-.5 53-10.8 70.5-30.5 38.5-43.4 32.1-117.8 31.4-124.9-2.5-53.3-27.7-78.8-48.5-90.7C280.8 5.2 262.7.4 242.5 0H240.8c-11.1 0-32.9 1.8-53.8 13.7-21 11.9-46.6 37.4-49.1 91.1-.7 7.1-7.1 81.5 31.4 124.9 17.4 19.7 41.1 30 70.4 30.5zm-75.1-152.9c0-.3.1-.6.1-.8 3.3-71.7 54.2-79.4 76-79.4H241.9c27 .6 72.9 11.6 76 79.4 0 .3 0 .6.1.8.1.7 7.1 68.7-24.7 104.5-12.6 14.2-29.4 21.2-51.5 21.4h-1c-22-.2-38.9-7.2-51.4-21.4-31.7-35.6-24.9-103.9-24.8-104.5z" /><path d="M446.8 383.6v-.3c0-.8-.1-1.6-.1-2.5-.6-19.8-1.9-66.1-45.3-80.9-.3-.1-.7-.2-1-.3-45.1-11.5-82.6-37.5-83-37.8-6.1-4.3-14.5-2.8-18.8 3.3-4.3 6.1-2.8 14.5 3.3 18.8 1.7 1.2 41.5 28.9 91.3 41.7 23.3 8.3 25.9 33.2 26.6 56 0 .9 0 1.7.1 2.5.1 9-.5 22.9-2.1 30.9-16.2 9.2-79.7 41-176.3 41-96.2 0-160.1-31.9-176.4-41.1-1.6-8-2.3-21.9-2.1-30.9 0-.8.1-1.6.1-2.5.7-22.8 3.3-47.7 26.6-56 49.8-12.8 89.6-40.6 91.3-41.7 6.1-4.3 7.6-12.7 3.3-18.8-4.3-6.1-12.7-7.6-18.8-3.3-.4.3-37.7 26.3-83 37.8-.4.1-.7.2-1 .3-43.4 14.9-44.7 61.2-45.3 80.9 0 .9 0 1.7-.1 2.5v.3c-.1 5.2-.2 31.9 5.1 45.3 1 2.6 2.8 4.8 5.2 6.3 3 2 74.9 47.8 195.2 47.8s192.2-45.9 195.2-47.8c2.3-1.5 4.2-3.7 5.2-6.3 5-13.3 4.9-40 4.8-45.2z" /></symbol><symbol viewBox="0 0 548.358 548.358" id="vk"><path d="M545.451 400.298c-.664-1.431-1.283-2.618-1.858-3.569-9.514-17.135-27.695-38.167-54.532-63.102l-.567-.571-.284-.28-.287-.287h-.288c-12.18-11.611-19.893-19.418-23.123-23.415-5.91-7.614-7.234-15.321-4.004-23.13 2.282-5.9 10.854-18.36 25.696-37.397 7.807-10.089 13.99-18.175 18.556-24.267 32.931-43.78 47.208-71.756 42.828-83.939l-1.701-2.847c-1.143-1.714-4.093-3.282-8.846-4.712-4.764-1.427-10.853-1.663-18.278-.712l-82.224.568c-1.332-.472-3.234-.428-5.712.144l-3.713.859-1.431.715-1.136.859c-.952.568-1.999 1.567-3.142 2.995-1.137 1.423-2.088 3.093-2.848 4.996-8.952 23.031-19.13 44.444-30.553 64.238-7.043 11.803-13.511 22.032-19.418 30.693-5.899 8.658-10.848 15.037-14.842 19.126-4 4.093-7.61 7.372-10.852 9.849-3.237 2.478-5.708 3.525-7.419 3.142-1.715-.383-3.33-.763-4.859-1.143-2.663-1.714-4.805-4.045-6.42-6.995-1.622-2.95-2.714-6.663-3.285-11.136-.568-4.476-.904-8.326-1-11.563-.089-3.233-.048-7.806.145-13.706.198-5.903.287-9.897.287-11.991 0-7.234.141-15.085.424-23.555.288-8.47.521-15.181.716-20.125.194-4.949.284-10.185.284-15.705s-.336-9.849-1-12.991a44.442 44.442 0 0 0-2.99-9.137c-1.335-2.95-3.289-5.232-5.853-6.852-2.569-1.618-5.763-2.902-9.564-3.856-10.089-2.283-22.936-3.518-38.547-3.71-35.401-.38-58.148 1.906-68.236 6.855-3.997 2.091-7.614 4.948-10.848 8.562-3.427 4.189-3.905 6.475-1.431 6.851 11.422 1.711 19.508 5.804 24.267 12.275l1.715 3.429c1.334 2.474 2.666 6.854 3.999 13.134 1.331 6.28 2.19 13.227 2.568 20.837.95 13.897.95 25.793 0 35.689-.953 9.9-1.853 17.607-2.712 23.127-.859 5.52-2.143 9.993-3.855 13.418-1.715 3.426-2.856 5.52-3.428 6.28-.571.76-1.047 1.239-1.425 1.427a21.387 21.387 0 0 1-7.71 1.431c-2.667 0-5.901-1.334-9.707-4-3.805-2.666-7.754-6.328-11.847-10.992-4.093-4.665-8.709-11.184-13.85-19.558-5.137-8.374-10.467-18.271-15.987-29.691l-4.567-8.282c-2.855-5.328-6.755-13.086-11.704-23.267-4.952-10.185-9.329-20.037-13.134-29.554-1.521-3.997-3.806-7.04-6.851-9.134l-1.429-.859c-.95-.76-2.475-1.567-4.567-2.427a30.301 30.301 0 0 0-6.567-1.854l-78.229.568c-7.994 0-13.418 1.811-16.274 5.428l-1.143 1.711c-.571.953-.859 2.475-.859 4.57 0 2.094.571 4.664 1.714 7.707 11.42 26.84 23.839 52.725 37.257 77.659 13.418 24.934 25.078 45.019 34.973 60.237 9.897 15.229 19.985 29.602 30.264 43.112 10.279 13.515 17.083 22.176 20.412 25.981 3.333 3.812 5.951 6.662 7.854 8.565l7.139 6.851c4.568 4.569 11.276 10.041 20.127 16.416 8.853 6.379 18.654 12.659 29.408 18.85 10.756 6.181 23.269 11.225 37.546 15.126 14.275 3.905 28.169 5.472 41.684 4.716h32.834c6.659-.575 11.704-2.669 15.133-6.283l1.136-1.431c.764-1.136 1.479-2.901 2.139-5.276.668-2.379 1-5 1-7.851-.195-8.183.428-15.558 1.852-22.124 1.423-6.564 3.045-11.513 4.859-14.846 1.813-3.33 3.859-6.14 6.136-8.418 2.282-2.283 3.908-3.666 4.862-4.142.948-.479 1.705-.804 2.276-.999 4.568-1.522 9.944-.048 16.136 4.429 6.187 4.473 11.99 9.996 17.418 16.56 5.425 6.57 11.943 13.941 19.555 22.124 7.617 8.186 14.277 14.271 19.985 18.274l5.708 3.426c3.812 2.286 8.761 4.38 14.853 6.283 6.081 1.902 11.409 2.378 15.984 1.427l73.087-1.14c7.229 0 12.854-1.197 16.844-3.572 3.998-2.379 6.373-5 7.139-7.851.764-2.854.805-6.092.145-9.712-.677-3.611-1.344-6.136-2.008-7.563z" /></symbol></defs></svg>